<?xml version="1.0" encoding="UTF-8" standalone="no"?><svg xmlns="http://www.w3.org/2000/svg" xmlns:xlink="http://www.w3.org/1999/xlink" contentScriptType="application/ecmascript" contentStyleType="text/css" height="433px" preserveAspectRatio="none" style="width:381px;height:433px;" version="1.1" viewBox="0 0 381 433" width="381px" zoomAndPan="magnify"><defs><filter height="300%" id="f1u6k8m08hfpr8" width="300%" x="-1" y="-1"><feGaussianBlur result="blurOut" stdDeviation="2.0"/><feColorMatrix in="blurOut" result="blurOut2" type="matrix" values="0 0 0 0 0 0 0 0 0 0 0 0 0 0 0 0 0 0 .4 0"/><feOffset dx="4.0" dy="4.0" in="blurOut2" result="blurOut3"/><feBlend in="SourceGraphic" in2="blurOut3" mode="normal"/></filter></defs><g><text fill="#000000" font-family="sans-serif" font-size="18" lengthAdjust="spacing" textLength="372" x="2" y="18.6855">UML Klassen Diagramm - Parkhausverwaltung</text><!--MD5=[de44617903f0bc9bd6518baedf249267]
class Parkhaus--><rect codeLine="3" fill="#FEFECE" filter="url(#f1u6k8m08hfpr8)" height="89.5078" id="Parkhaus" style="stroke:#A80036;stroke-width:1.5;" width="117" x="132.5" y="29.6406"/><ellipse cx="161.9" cy="45.6406" fill="#ADD1B2" rx="11" ry="11" style="stroke:#A80036;stroke-width:1.0;"/><path d="M164.6656,41.5156 Q164.8219,41.2969 165.0094,41.1875 Q165.1969,41.0781 165.4156,41.0781 Q165.7906,41.0781 166.025,41.3438 Q166.2594,41.5938 166.2594,42.2031 L166.2594,43.6563 Q166.2594,44.2656 166.025,44.5313 Q165.7906,44.7969 165.4156,44.7969 Q165.0719,44.7969 164.8688,44.5938 Q164.6656,44.4063 164.5563,43.8906 Q164.5094,43.5313 164.3219,43.3438 Q163.9938,42.9688 163.3844,42.75 Q162.775,42.5313 162.15,42.5313 Q161.3844,42.5313 160.7438,42.8594 Q160.1188,43.1875 159.6188,43.9375 Q159.1344,44.6875 159.1344,45.7188 L159.1344,46.8125 Q159.1344,48.0469 160.025,48.875 Q160.9156,49.6875 162.5094,49.6875 Q163.4469,49.6875 164.1031,49.4375 Q164.4938,49.2813 164.9156,48.8438 Q165.1813,48.5781 165.3219,48.5 Q165.4781,48.4219 165.6813,48.4219 Q166.0094,48.4219 166.2594,48.6875 Q166.525,48.9375 166.525,49.2813 Q166.525,49.625 166.1813,50.0313 Q165.6813,50.6094 164.8844,50.9375 Q163.8063,51.3906 162.5094,51.3906 Q160.9938,51.3906 159.7906,50.7656 Q158.8063,50.2656 158.1188,49.2031 Q157.4313,48.125 157.4313,46.8438 L157.4313,45.6875 Q157.4313,44.3594 158.0406,43.2188 Q158.6656,42.0625 159.7594,41.4531 Q160.8531,40.8281 162.0875,40.8281 Q162.8219,40.8281 163.4625,41 Q164.1188,41.1563 164.6656,41.5156 Z " fill="#000000"/><text fill="#000000" font-family="sans-serif" font-size="12" lengthAdjust="spacing" textLength="53" x="179.1" y="50.5508">Parkhaus</text><line style="stroke:#A80036;stroke-width:1.5;" x1="133.5" x2="248.5" y1="61.6406" y2="61.6406"/><rect fill="none" height="6" style="stroke:#C82930;stroke-width:1.0;" width="6" x="140.5" y="69.6406"/><text fill="#000000" font-family="sans-serif" font-size="11" lengthAdjust="spacing" textLength="25" x="152.5" y="77.0596">id: int</text><rect fill="none" height="6" style="stroke:#C82930;stroke-width:1.0;" width="6" x="140.5" y="83.4766"/><text fill="#000000" font-family="sans-serif" font-size="11" lengthAdjust="spacing" textLength="59" x="152.5" y="90.8955">name: string</text><line style="stroke:#A80036;stroke-width:1.5;" x1="133.5" x2="248.5" y1="97.3125" y2="97.3125"/><ellipse cx="143.5" cy="108.3125" fill="#84BE84" rx="3" ry="3" style="stroke:#038048;stroke-width:1.0;"/><text fill="#000000" font-family="sans-serif" font-size="11" lengthAdjust="spacing" textLength="91" x="152.5" y="112.7314">getKapazitaet(): int</text><!--MD5=[5b2bbf368e7b0ef7355ff9224dc99188]
class Parkplatz--><rect codeLine="9" fill="#FEFECE" filter="url(#f1u6k8m08hfpr8)" height="89.5078" id="Parkplatz" style="stroke:#A80036;stroke-width:1.5;" width="89" x="146.5" y="179.6406"/><ellipse cx="164.65" cy="195.6406" fill="#ADD1B2" rx="11" ry="11" style="stroke:#A80036;stroke-width:1.0;"/><path d="M167.4156,191.5156 Q167.5719,191.2969 167.7594,191.1875 Q167.9469,191.0781 168.1656,191.0781 Q168.5406,191.0781 168.775,191.3438 Q169.0094,191.5938 169.0094,192.2031 L169.0094,193.6563 Q169.0094,194.2656 168.775,194.5313 Q168.5406,194.7969 168.1656,194.7969 Q167.8219,194.7969 167.6188,194.5938 Q167.4156,194.4063 167.3063,193.8906 Q167.2594,193.5313 167.0719,193.3438 Q166.7438,192.9688 166.1344,192.75 Q165.525,192.5313 164.9,192.5313 Q164.1344,192.5313 163.4938,192.8594 Q162.8688,193.1875 162.3688,193.9375 Q161.8844,194.6875 161.8844,195.7188 L161.8844,196.8125 Q161.8844,198.0469 162.775,198.875 Q163.6656,199.6875 165.2594,199.6875 Q166.1969,199.6875 166.8531,199.4375 Q167.2438,199.2813 167.6656,198.8438 Q167.9313,198.5781 168.0719,198.5 Q168.2281,198.4219 168.4313,198.4219 Q168.7594,198.4219 169.0094,198.6875 Q169.275,198.9375 169.275,199.2813 Q169.275,199.625 168.9313,200.0313 Q168.4313,200.6094 167.6344,200.9375 Q166.5563,201.3906 165.2594,201.3906 Q163.7438,201.3906 162.5406,200.7656 Q161.5563,200.2656 160.8688,199.2031 Q160.1813,198.125 160.1813,196.8438 L160.1813,195.6875 Q160.1813,194.3594 160.7906,193.2188 Q161.4156,192.0625 162.5094,191.4531 Q163.6031,190.8281 164.8375,190.8281 Q165.5719,190.8281 166.2125,191 Q166.8688,191.1563 167.4156,191.5156 Z " fill="#000000"/><text fill="#000000" font-family="sans-serif" font-size="12" lengthAdjust="spacing" textLength="50" x="179.35" y="200.5508">Parkplatz</text><line style="stroke:#A80036;stroke-width:1.5;" x1="147.5" x2="234.5" y1="211.6406" y2="211.6406"/><rect fill="none" height="6" style="stroke:#C82930;stroke-width:1.0;" width="6" x="154.5" y="219.6406"/><text fill="#000000" font-family="sans-serif" font-size="11" lengthAdjust="spacing" textLength="25" x="166.5" y="227.0596">id: int</text><rect fill="none" height="6" style="stroke:#C82930;stroke-width:1.0;" width="6" x="154.5" y="233.4766"/><text fill="#000000" font-family="sans-serif" font-size="11" lengthAdjust="spacing" textLength="47" x="166.5" y="240.8955">ebene: int</text><line style="stroke:#A80036;stroke-width:1.5;" x1="147.5" x2="234.5" y1="247.3125" y2="247.3125"/><ellipse cx="157.5" cy="258.3125" fill="#84BE84" rx="3" ry="3" style="stroke:#038048;stroke-width:1.0;"/><text fill="#000000" font-family="sans-serif" font-size="11" lengthAdjust="spacing" textLength="63" x="166.5" y="262.7314">istFrei(): bool</text><!--MD5=[ac6bea31e13c94c7baa9ad18feb7405e]
class Ticket--><rect codeLine="15" fill="#FEFECE" filter="url(#f1u6k8m08hfpr8)" height="89.5078" id="Ticket" style="stroke:#A80036;stroke-width:1.5;" width="115" x="133.5" y="329.6406"/><ellipse cx="171.45" cy="345.6406" fill="#ADD1B2" rx="11" ry="11" style="stroke:#A80036;stroke-width:1.0;"/><path d="M174.2156,341.5156 Q174.3719,341.2969 174.5594,341.1875 Q174.7469,341.0781 174.9656,341.0781 Q175.3406,341.0781 175.575,341.3438 Q175.8094,341.5938 175.8094,342.2031 L175.8094,343.6563 Q175.8094,344.2656 175.575,344.5313 Q175.3406,344.7969 174.9656,344.7969 Q174.6219,344.7969 174.4188,344.5938 Q174.2156,344.4063 174.1063,343.8906 Q174.0594,343.5313 173.8719,343.3438 Q173.5438,342.9688 172.9344,342.75 Q172.325,342.5313 171.7,342.5313 Q170.9344,342.5313 170.2938,342.8594 Q169.6688,343.1875 169.1688,343.9375 Q168.6844,344.6875 168.6844,345.7188 L168.6844,346.8125 Q168.6844,348.0469 169.575,348.875 Q170.4656,349.6875 172.0594,349.6875 Q172.9969,349.6875 173.6531,349.4375 Q174.0438,349.2813 174.4656,348.8438 Q174.7313,348.5781 174.8719,348.5 Q175.0281,348.4219 175.2313,348.4219 Q175.5594,348.4219 175.8094,348.6875 Q176.075,348.9375 176.075,349.2813 Q176.075,349.625 175.7313,350.0313 Q175.2313,350.6094 174.4344,350.9375 Q173.3563,351.3906 172.0594,351.3906 Q170.5438,351.3906 169.3406,350.7656 Q168.3563,350.2656 167.6688,349.2031 Q166.9813,348.125 166.9813,346.8438 L166.9813,345.6875 Q166.9813,344.3594 167.5906,343.2188 Q168.2156,342.0625 169.3094,341.4531 Q170.4031,340.8281 171.6375,340.8281 Q172.3719,340.8281 173.0125,341 Q173.6688,341.1563 174.2156,341.5156 Z " fill="#000000"/><text fill="#000000" font-family="sans-serif" font-size="12" lengthAdjust="spacing" textLength="32" x="190.55" y="350.5508">Ticket</text><line style="stroke:#A80036;stroke-width:1.5;" x1="134.5" x2="247.5" y1="361.6406" y2="361.6406"/><rect fill="none" height="6" style="stroke:#C82930;stroke-width:1.0;" width="6" x="141.5" y="369.6406"/><text fill="#000000" font-family="sans-serif" font-size="11" lengthAdjust="spacing" textLength="25" x="153.5" y="377.0596">id: int</text><rect fill="none" height="6" style="stroke:#C82930;stroke-width:1.0;" width="6" x="141.5" y="383.4766"/><text fill="#000000" font-family="sans-serif" font-size="11" lengthAdjust="spacing" textLength="71" x="153.5" y="390.8955">nummer: string</text><line style="stroke:#A80036;stroke-width:1.5;" x1="134.5" x2="247.5" y1="397.3125" y2="397.3125"/><ellipse cx="144.5" cy="408.3125" fill="#84BE84" rx="3" ry="3" style="stroke:#038048;stroke-width:1.0;"/><text fill="#000000" font-family="sans-serif" font-size="11" lengthAdjust="spacing" textLength="89" x="153.5" y="412.7314">getPreis(): decimal</text><!--MD5=[18b8c95977a5e92e22f52a3ab4e81cf0]
link Parkhaus to Parkplatz--><path codeLine="21" d="M191,127.7906 C191,141.9306 191,157.2306 191,171.3806 " fill="none" id="Parkhaus-Parkplatz" style="stroke:#A80036;stroke-width:1.0;"/><line style="stroke:#A80036;stroke-width:1.0;" x1="191" x2="197" y1="171.5506" y2="179.5506"/><line style="stroke:#A80036;stroke-width:1.0;" x1="191" x2="185" y1="171.5506" y2="179.5506"/><line style="stroke:#A80036;stroke-width:1.0;" x1="191" x2="191" y1="171.5506" y2="179.5506"/><ellipse cx="191" cy="165.5506" fill="none" rx="4" ry="4" style="stroke:#A80036;stroke-width:1.0;"/><line style="stroke:#A80036;stroke-width:1.0;" x1="187" x2="195" y1="123.6406" y2="123.6406"/><line style="stroke:#A80036;stroke-width:1.0;" x1="187" x2="195" y1="126.6406" y2="126.6406"/><line style="stroke:#A80036;stroke-width:1.0;" x1="191" x2="191" y1="127.6406" y2="119.6406"/><!--MD5=[edfbecedf4a2344378b4d35914cc3edf]
link Parkplatz to Ticket--><path codeLine="22" d="M191,277.7906 C191,291.9306 191,307.2306 191,321.3806 " fill="none" id="Parkplatz-Ticket" style="stroke:#A80036;stroke-width:1.0;"/><line style="stroke:#A80036;stroke-width:1.0;" x1="191" x2="197" y1="321.5506" y2="329.5506"/><line style="stroke:#A80036;stroke-width:1.0;" x1="191" x2="185" y1="321.5506" y2="329.5506"/><line style="stroke:#A80036;stroke-width:1.0;" x1="191" x2="191" y1="321.5506" y2="329.5506"/><ellipse cx="191" cy="315.5506" fill="none" rx="4" ry="4" style="stroke:#A80036;stroke-width:1.0;"/><line style="stroke:#A80036;stroke-width:1.0;" x1="187" x2="195" y1="273.6406" y2="273.6406"/><line style="stroke:#A80036;stroke-width:1.0;" x1="187" x2="195" y1="276.6406" y2="276.6406"/><line style="stroke:#A80036;stroke-width:1.0;" x1="191" x2="191" y1="277.6406" y2="269.6406"/><!--MD5=[3cce431559ea1badeae3f03f6fcf28d1]
@startuml UML_Klassendiagramm
title UML Klassen Diagramm - Parkhausverwaltung

class Parkhaus {
    -id: int
    -name: string
    +getKapazitaet(): int
}

class Parkplatz {
    -id: int
    -ebene: int
    +istFrei(): bool
}

class Ticket {
    -id: int
    -nummer: string
    +getPreis(): decimal
}

Parkhaus ||- -o{ Parkplatz
Parkplatz ||- -o{ Ticket

@enduml

PlantUML version 1.2021.00(Sun Jan 10 11:25:05 CET 2021)
(MIT source distribution)
Java Runtime: Java(TM) SE Runtime Environment
JVM: Java HotSpot(TM) 64-Bit Server VM
Default Encoding: Cp1252
Language: de
Country: DE
--></g></svg>