<?xml version="1.0" encoding="UTF-8" standalone="no"?><svg xmlns="http://www.w3.org/2000/svg" xmlns:xlink="http://www.w3.org/1999/xlink" contentScriptType="application/ecmascript" contentStyleType="text/css" height="404px" preserveAspectRatio="none" style="width:471px;height:404px;" version="1.1" viewBox="0 0 471 404" width="471px" zoomAndPan="magnify"><defs><filter height="300%" id="f179o3ycb8ou9u" width="300%" x="-1" y="-1"><feGaussianBlur result="blurOut" stdDeviation="2.0"/><feColorMatrix in="blurOut" result="blurOut2" type="matrix" values="0 0 0 0 0 0 0 0 0 0 0 0 0 0 0 0 0 0 .4 0"/><feOffset dx="4.0" dy="4.0" in="blurOut2" result="blurOut3"/><feBlend in="SourceGraphic" in2="blurOut3" mode="normal"/></filter></defs><g><text fill="#000000" font-family="sans-serif" font-size="18" lengthAdjust="spacing" textLength="435" x="17" y="28.6855">Struktogramm: Schrankenöffnung mit Zahlungsprüfung</text><ellipse cx="252.75" cy="42.6406" fill="#000000" filter="url(#f179o3ycb8ou9u)" rx="10" ry="10" style="stroke:none;stroke-width:1.0;"/><rect fill="#FEFECE" filter="url(#f179o3ycb8ou9u)" height="35.0938" rx="12.5" ry="12.5" style="stroke:#A80036;stroke-width:1.5;" width="143" x="181.25" y="72.6406"/><text fill="#000000" font-family="sans-serif" font-size="12" lengthAdjust="spacing" textLength="123" x="191.25" y="95.0977">Kennzeichen erfassen</text><rect fill="#FEFECE" filter="url(#f179o3ycb8ou9u)" height="35.0938" rx="12.5" ry="12.5" style="stroke:#A80036;stroke-width:1.5;" width="211" x="147.25" y="127.7344"/><text fill="#000000" font-family="sans-serif" font-size="12" lengthAdjust="spacing" textLength="191" x="157.25" y="150.1914">Kennzeichen in Datenbank suchen</text><polygon fill="#FEFECE" filter="url(#f179o3ycb8ou9u)" points="202.25,182.8281,303.25,182.8281,315.25,194.8281,303.25,206.8281,202.25,206.8281,190.25,194.8281,202.25,182.8281" style="stroke:#A80036;stroke-width:1.5;"/><text fill="#000000" font-family="sans-serif" font-size="11" lengthAdjust="spacing" textLength="101" x="202.25" y="199.3291">Fahrzeug gefunden?</text><text fill="#000000" font-family="sans-serif" font-size="11" lengthAdjust="spacing" textLength="11" x="179.25" y="192.4111">Ja</text><text fill="#000000" font-family="sans-serif" font-size="11" lengthAdjust="spacing" textLength="21" x="315.25" y="192.4111">Nein</text><polygon fill="#FEFECE" filter="url(#f179o3ycb8ou9u)" points="93.5,216.8281,172.5,216.8281,184.5,228.8281,172.5,240.8281,93.5,240.8281,81.5,228.8281,93.5,216.8281" style="stroke:#A80036;stroke-width:1.5;"/><text fill="#000000" font-family="sans-serif" font-size="11" lengthAdjust="spacing" textLength="79" x="93.5" y="233.3291">Zahlung erfolgt?</text><text fill="#000000" font-family="sans-serif" font-size="11" lengthAdjust="spacing" textLength="11" x="70.5" y="226.4111">Ja</text><text fill="#000000" font-family="sans-serif" font-size="11" lengthAdjust="spacing" textLength="21" x="184.5" y="226.4111">Nein</text><rect fill="#FEFECE" filter="url(#f179o3ycb8ou9u)" height="35.0938" rx="12.5" ry="12.5" style="stroke:#A80036;stroke-width:1.5;" width="109" x="11" y="250.8281"/><text fill="#000000" font-family="sans-serif" font-size="12" lengthAdjust="spacing" textLength="89" x="21" y="273.2852">Schranke öffnen</text><rect fill="#FEFECE" filter="url(#f179o3ycb8ou9u)" height="35.0938" rx="12.5" ry="12.5" style="stroke:#A80036;stroke-width:1.5;" width="121" x="140" y="250.8281"/><text fill="#000000" font-family="sans-serif" font-size="12" lengthAdjust="spacing" textLength="101" x="150" y="273.2852">Zahlung anfordern</text><polygon fill="#FEFECE" filter="url(#f179o3ycb8ou9u)" points="133,291.9219,145,303.9219,133,315.9219,121,303.9219,133,291.9219" style="stroke:#A80036;stroke-width:1.5;"/><rect fill="#FEFECE" filter="url(#f179o3ycb8ou9u)" height="35.0938" rx="12.5" ry="12.5" style="stroke:#A80036;stroke-width:1.5;" width="163" x="291" y="216.8281"/><text fill="#000000" font-family="sans-serif" font-size="12" lengthAdjust="spacing" textLength="143" x="301" y="239.2852">Fehlermeldung ausgeben</text><polygon fill="#FEFECE" filter="url(#f179o3ycb8ou9u)" points="252.75,321.9219,264.75,333.9219,252.75,345.9219,240.75,333.9219,252.75,321.9219" style="stroke:#A80036;stroke-width:1.5;"/><ellipse cx="252.75" cy="376.9219" fill="#FFFFFF" filter="url(#f179o3ycb8ou9u)" rx="11" ry="11" style="stroke:#000000;stroke-width:1.0;"/><ellipse cx="252.75" cy="376.9219" fill="#000000" rx="6" ry="6" style="stroke:#7F7F7F;stroke-width:1.0;"/><line style="stroke:#A80036;stroke-width:1.5;" x1="252.75" x2="252.75" y1="52.6406" y2="72.6406"/><polygon fill="#A80036" points="248.75,62.6406,252.75,72.6406,256.75,62.6406,252.75,66.6406" style="stroke:#A80036;stroke-width:1.0;"/><line style="stroke:#A80036;stroke-width:1.5;" x1="252.75" x2="252.75" y1="107.7344" y2="127.7344"/><polygon fill="#A80036" points="248.75,117.7344,252.75,127.7344,256.75,117.7344,252.75,121.7344" style="stroke:#A80036;stroke-width:1.0;"/><line style="stroke:#A80036;stroke-width:1.5;" x1="81.5" x2="65.5" y1="228.8281" y2="228.8281"/><line style="stroke:#A80036;stroke-width:1.5;" x1="65.5" x2="65.5" y1="228.8281" y2="250.8281"/><polygon fill="#A80036" points="61.5,240.8281,65.5,250.8281,69.5,240.8281,65.5,244.8281" style="stroke:#A80036;stroke-width:1.0;"/><line style="stroke:#A80036;stroke-width:1.5;" x1="184.5" x2="200.5" y1="228.8281" y2="228.8281"/><line style="stroke:#A80036;stroke-width:1.5;" x1="200.5" x2="200.5" y1="228.8281" y2="250.8281"/><polygon fill="#A80036" points="196.5,240.8281,200.5,250.8281,204.5,240.8281,200.5,244.8281" style="stroke:#A80036;stroke-width:1.0;"/><line style="stroke:#A80036;stroke-width:1.5;" x1="65.5" x2="65.5" y1="285.9219" y2="303.9219"/><line style="stroke:#A80036;stroke-width:1.5;" x1="65.5" x2="121" y1="303.9219" y2="303.9219"/><polygon fill="#A80036" points="111,299.9219,121,303.9219,111,307.9219,115,303.9219" style="stroke:#A80036;stroke-width:1.0;"/><line style="stroke:#A80036;stroke-width:1.5;" x1="200.5" x2="200.5" y1="285.9219" y2="303.9219"/><line style="stroke:#A80036;stroke-width:1.5;" x1="200.5" x2="145" y1="303.9219" y2="303.9219"/><polygon fill="#A80036" points="155,299.9219,145,303.9219,155,307.9219,151,303.9219" style="stroke:#A80036;stroke-width:1.0;"/><line style="stroke:#A80036;stroke-width:1.5;" x1="190.25" x2="133" y1="194.8281" y2="194.8281"/><line style="stroke:#A80036;stroke-width:1.5;" x1="133" x2="133" y1="194.8281" y2="216.8281"/><polygon fill="#A80036" points="129,206.8281,133,216.8281,137,206.8281,133,210.8281" style="stroke:#A80036;stroke-width:1.0;"/><line style="stroke:#A80036;stroke-width:1.5;" x1="315.25" x2="372.5" y1="194.8281" y2="194.8281"/><line style="stroke:#A80036;stroke-width:1.5;" x1="372.5" x2="372.5" y1="194.8281" y2="216.8281"/><polygon fill="#A80036" points="368.5,206.8281,372.5,216.8281,376.5,206.8281,372.5,210.8281" style="stroke:#A80036;stroke-width:1.0;"/><line style="stroke:#A80036;stroke-width:1.5;" x1="133" x2="133" y1="315.9219" y2="333.9219"/><line style="stroke:#A80036;stroke-width:1.5;" x1="133" x2="240.75" y1="333.9219" y2="333.9219"/><polygon fill="#A80036" points="230.75,329.9219,240.75,333.9219,230.75,337.9219,234.75,333.9219" style="stroke:#A80036;stroke-width:1.0;"/><line style="stroke:#A80036;stroke-width:1.5;" x1="372.5" x2="372.5" y1="251.9219" y2="333.9219"/><line style="stroke:#A80036;stroke-width:1.5;" x1="372.5" x2="264.75" y1="333.9219" y2="333.9219"/><polygon fill="#A80036" points="274.75,329.9219,264.75,333.9219,274.75,337.9219,270.75,333.9219" style="stroke:#A80036;stroke-width:1.0;"/><line style="stroke:#A80036;stroke-width:1.5;" x1="252.75" x2="252.75" y1="162.8281" y2="182.8281"/><polygon fill="#A80036" points="248.75,172.8281,252.75,182.8281,256.75,172.8281,252.75,176.8281" style="stroke:#A80036;stroke-width:1.0;"/><line style="stroke:#A80036;stroke-width:1.5;" x1="252.75" x2="252.75" y1="345.9219" y2="365.9219"/><polygon fill="#A80036" points="248.75,355.9219,252.75,365.9219,256.75,355.9219,252.75,359.9219" style="stroke:#A80036;stroke-width:1.0;"/><!--MD5=[c6a30d7a3409d915fa9cfafd6aea343a]
@startuml Struktogramm-Schrankenoeffnung
title Struktogramm: Schrankenöffnung mit Zahlungsprüfung

start

:Kennzeichen erfassen;
:Kennzeichen in Datenbank suchen;

if (Fahrzeug gefunden?) then (Ja)
    if (Zahlung erfolgt?) then (Ja)
        :Schranke öffnen;
    else (Nein)
        :Zahlung anfordern;
    endif
else (Nein)
    :Fehlermeldung ausgeben;
endif

stop
@enduml

PlantUML version 1.2021.00(Sun Jan 10 11:25:05 CET 2021)
(MIT source distribution)
Java Runtime: Java(TM) SE Runtime Environment
JVM: Java HotSpot(TM) 64-Bit Server VM
Default Encoding: Cp1252
Language: de
Country: DE
--></g></svg>