<?xml version="1.0" encoding="UTF-8" standalone="no"?><svg xmlns="http://www.w3.org/2000/svg" xmlns:xlink="http://www.w3.org/1999/xlink" contentScriptType="application/ecmascript" contentStyleType="text/css" height="1084px" preserveAspectRatio="none" style="width:1492px;height:1084px;" version="1.1" viewBox="0 0 1492 1084" width="1492px" zoomAndPan="magnify"><defs><filter height="300%" id="f1hipqvsgprab7" width="300%" x="-1" y="-1"><feGaussianBlur result="blurOut" stdDeviation="2.0"/><feColorMatrix in="blurOut" result="blurOut2" type="matrix" values="0 0 0 0 0 0 0 0 0 0 0 0 0 0 0 0 0 0 .4 0"/><feOffset dx="4.0" dy="4.0" in="blurOut2" result="blurOut3"/><feBlend in="SourceGraphic" in2="blurOut3" mode="normal"/></filter></defs><g><text fill="#000000" font-family="sans-serif" font-size="18" lengthAdjust="spacing" textLength="452" x="513.5" y="18.6855">ZUSTANDSDIAGRAMM - Anzeige der freien Parkplaetze</text><ellipse cx="58" cy="38.6406" fill="#000000" filter="url(#f1hipqvsgprab7)" rx="10" ry="10" style="stroke:none;stroke-width:1.0;"/><g id="Initialisierung"><rect fill="#FEFECE" filter="url(#f1hipqvsgprab7)" height="50" rx="12.5" ry="12.5" style="stroke:#A80036;stroke-width:1.5;" width="102" x="7" y="163.6406"/><line style="stroke:#A80036;stroke-width:1.5;" x1="7" x2="109" y1="191.25" y2="191.25"/><text fill="#000000" font-family="sans-serif" font-size="14" lengthAdjust="spacing" textLength="82" x="17" y="183.1738">Initialisierung</text></g><g id="Daten_laden"><rect fill="#FEFECE" filter="url(#f1hipqvsgprab7)" height="50" rx="12.5" ry="12.5" style="stroke:#A80036;stroke-width:1.5;" width="101" x="450.5" y="365.6406"/><line style="stroke:#A80036;stroke-width:1.5;" x1="450.5" x2="551.5" y1="393.25" y2="393.25"/><text fill="#000000" font-family="sans-serif" font-size="14" lengthAdjust="spacing" textLength="81" x="460.5" y="385.1738">Daten_laden</text></g><g id="Anzeige_aktualisieren"><rect fill="#FEFECE" filter="url(#f1hipqvsgprab7)" height="50" rx="12.5" ry="12.5" style="stroke:#A80036;stroke-width:1.5;" width="158" x="681" y="576.1406"/><line style="stroke:#A80036;stroke-width:1.5;" x1="681" x2="839" y1="603.75" y2="603.75"/><text fill="#000000" font-family="sans-serif" font-size="14" lengthAdjust="spacing" textLength="138" x="691" y="595.6738">Anzeige_aktualisieren</text></g><g id="Warten_auf_Aenderungen"><rect fill="#FEFECE" filter="url(#f1hipqvsgprab7)" height="50" rx="12.5" ry="12.5" style="stroke:#A80036;stroke-width:1.5;" width="188" x="666" y="786.6406"/><line style="stroke:#A80036;stroke-width:1.5;" x1="666" x2="854" y1="814.25" y2="814.25"/><text fill="#000000" font-family="sans-serif" font-size="14" lengthAdjust="spacing" textLength="168" x="676" y="806.1738">Warten_auf_Aenderungen</text></g><g id="Fehlerzustand"><rect fill="#FEFECE" filter="url(#f1hipqvsgprab7)" height="50" rx="12.5" ry="12.5" style="stroke:#A80036;stroke-width:1.5;" width="110" x="82" y="576.1406"/><line style="stroke:#A80036;stroke-width:1.5;" x1="82" x2="192" y1="603.75" y2="603.75"/><text fill="#000000" font-family="sans-serif" font-size="14" lengthAdjust="spacing" textLength="90" x="92" y="595.6738">Fehlerzustand</text></g><g id="Wartungsmodus"><rect fill="#FEFECE" filter="url(#f1hipqvsgprab7)" height="50" rx="12.5" ry="12.5" style="stroke:#A80036;stroke-width:1.5;" width="123" x="75.5" y="786.6406"/><line style="stroke:#A80036;stroke-width:1.5;" x1="75.5" x2="198.5" y1="814.25" y2="814.25"/><text fill="#000000" font-family="sans-serif" font-size="14" lengthAdjust="spacing" textLength="103" x="85.5" y="806.1738">Wartungsmodus</text></g><path d="M144,126.6406 L144,184.6406 L109.38,188.6406 L144,192.6406 L144,251.1016 A0,0 0 0 0 144,251.1016 L356,251.1016 A0,0 0 0 0 356,251.1016 L356,136.6406 L346,126.6406 L144,126.6406 A0,0 0 0 0 144,126.6406 " fill="#FBFB77" filter="url(#f1hipqvsgprab7)" style="stroke:#A80036;stroke-width:1.0;"/><path d="M346,126.6406 L346,136.6406 L356,136.6406 L346,126.6406 " fill="#FBFB77" style="stroke:#A80036;stroke-width:1.0;"/><text fill="#000000" font-family="sans-serif" font-size="13" lengthAdjust="spacing" textLength="152" x="150" y="145.1357">Entry: loadSystemConfig()</text><text fill="#000000" font-family="sans-serif" font-size="13" lengthAdjust="spacing" textLength="124" x="150" y="161.4873">Do: initializeSystem()</text><text fill="#000000" font-family="sans-serif" font-size="13" lengthAdjust="spacing" textLength="152" x="150" y="177.8389">Exit: cleanupInitialization()</text><text fill="#000000" font-family="sans-serif" font-size="13" lengthAdjust="spacing" textLength="0" x="154" y="194.1904"/><text fill="#000000" font-family="sans-serif" font-size="13" lengthAdjust="spacing" textLength="191" x="150" y="210.542">- Datenbankverbindung herstellen</text><text fill="#000000" font-family="sans-serif" font-size="13" lengthAdjust="spacing" textLength="177" x="150" y="226.8936">- Parkhaus-Konfiguration laden</text><text fill="#000000" font-family="sans-serif" font-size="13" lengthAdjust="spacing" textLength="156" x="150" y="243.2451">- Alle Parkplaetze abfragen</text><path d="M587,328.6406 L587,386.6406 L551.79,390.6406 L587,394.6406 L587,453.1016 A0,0 0 0 0 587,453.1016 L809,453.1016 A0,0 0 0 0 809,453.1016 L809,338.6406 L799,328.6406 L587,328.6406 A0,0 0 0 0 587,328.6406 " fill="#FBFB77" filter="url(#f1hipqvsgprab7)" style="stroke:#A80036;stroke-width:1.0;"/><path d="M799,328.6406 L799,338.6406 L809,338.6406 L799,328.6406 " fill="#FBFB77" style="stroke:#A80036;stroke-width:1.0;"/><text fill="#000000" font-family="sans-serif" font-size="13" lengthAdjust="spacing" textLength="183" x="593" y="347.1357">Entry: executeDatabaseQuery()</text><text fill="#000000" font-family="sans-serif" font-size="13" lengthAdjust="spacing" textLength="127" x="593" y="363.4873">Do: loadParkingData()</text><text fill="#000000" font-family="sans-serif" font-size="13" lengthAdjust="spacing" textLength="119" x="593" y="379.8389">Exit: cleanupQuery()</text><text fill="#000000" font-family="sans-serif" font-size="13" lengthAdjust="spacing" textLength="0" x="597" y="396.1904"/><text fill="#000000" font-family="sans-serif" font-size="13" lengthAdjust="spacing" textLength="140" x="593" y="412.542">- SQL-Query ausfuehren</text><text fill="#000000" font-family="sans-serif" font-size="13" lengthAdjust="spacing" textLength="201" x="593" y="428.8936">- Status aller Parkplaetze ermitteln</text><text fill="#000000" font-family="sans-serif" font-size="13" lengthAdjust="spacing" textLength="134" x="593" y="445.2451">- Freie Plaetze zaehlen</text><path d="M874.5,530.6406 L874.5,597.1406 L839.36,601.1406 L874.5,605.1406 L874.5,671.4531 A0,0 0 0 0 874.5,671.4531 L1123.5,671.4531 A0,0 0 0 0 1123.5,671.4531 L1123.5,540.6406 L1113.5,530.6406 L874.5,530.6406 A0,0 0 0 0 874.5,530.6406 " fill="#FBFB77" filter="url(#f1hipqvsgprab7)" style="stroke:#A80036;stroke-width:1.0;"/><path d="M1113.5,530.6406 L1113.5,540.6406 L1123.5,540.6406 L1113.5,530.6406 " fill="#FBFB77" style="stroke:#A80036;stroke-width:1.0;"/><text fill="#000000" font-family="sans-serif" font-size="13" lengthAdjust="spacing" textLength="129" x="880.5" y="549.1357">Entry: updateDisplay()</text><text fill="#000000" font-family="sans-serif" font-size="13" lengthAdjust="spacing" textLength="114" x="880.5" y="565.4873">Do: refreshDisplay()</text><text fill="#000000" font-family="sans-serif" font-size="13" lengthAdjust="spacing" textLength="127" x="880.5" y="581.8389">Exit: cleanupDisplay()</text><text fill="#000000" font-family="sans-serif" font-size="13" lengthAdjust="spacing" textLength="0" x="884.5" y="598.1904"/><text fill="#000000" font-family="sans-serif" font-size="13" lengthAdjust="spacing" textLength="204" x="880.5" y="614.542">- Freie Plaetze pro Ebene anzeigen</text><text fill="#000000" font-family="sans-serif" font-size="13" lengthAdjust="spacing" textLength="228" x="880.5" y="630.8936">- Gesamtanzahl freier Plaetze anzeigen</text><text fill="#000000" font-family="sans-serif" font-size="13" lengthAdjust="spacing" textLength="167" x="880.5" y="647.2451">- Farbkodierung aktualisieren</text><text fill="#000000" font-family="sans-serif" font-size="13" lengthAdjust="spacing" textLength="163" x="880.5" y="663.5967">(Gruen = frei, Rot = besetzt)</text><path d="M889,749.6406 L889,807.6406 L854.1,811.6406 L889,815.6406 L889,874.1016 A0,0 0 0 0 889,874.1016 L1073,874.1016 A0,0 0 0 0 1073,874.1016 L1073,759.6406 L1063,749.6406 L889,749.6406 A0,0 0 0 0 889,749.6406 " fill="#FBFB77" filter="url(#f1hipqvsgprab7)" style="stroke:#A80036;stroke-width:1.0;"/><path d="M1063,749.6406 L1063,759.6406 L1073,759.6406 L1063,749.6406 " fill="#FBFB77" style="stroke:#A80036;stroke-width:1.0;"/><text fill="#000000" font-family="sans-serif" font-size="13" lengthAdjust="spacing" textLength="105" x="895" y="768.1357">Entry: startTimer()</text><text fill="#000000" font-family="sans-serif" font-size="13" lengthAdjust="spacing" textLength="114" x="895" y="784.4873">Do: monitorEvents()</text><text fill="#000000" font-family="sans-serif" font-size="13" lengthAdjust="spacing" textLength="96" x="895" y="800.8389">Exit: stopTimer()</text><text fill="#000000" font-family="sans-serif" font-size="13" lengthAdjust="spacing" textLength="0" x="899" y="817.1904"/><text fill="#000000" font-family="sans-serif" font-size="13" lengthAdjust="spacing" textLength="163" x="895" y="833.542">- Timer laeuft (30 Sekunden)</text><text fill="#000000" font-family="sans-serif" font-size="13" lengthAdjust="spacing" textLength="120" x="895" y="849.8936">- Event-Listener aktiv</text><text fill="#000000" font-family="sans-serif" font-size="13" lengthAdjust="spacing" textLength="144" x="895" y="866.2451">- Keine Anzeige-Updates</text><path d="M227.5,530.6406 L227.5,597.1406 L192.12,601.1406 L227.5,605.1406 L227.5,671.4531 A0,0 0 0 0 227.5,671.4531 L430.5,671.4531 A0,0 0 0 0 430.5,671.4531 L430.5,540.6406 L420.5,530.6406 L227.5,530.6406 A0,0 0 0 0 227.5,530.6406 " fill="#FBFB77" filter="url(#f1hipqvsgprab7)" style="stroke:#A80036;stroke-width:1.0;"/><path d="M420.5,530.6406 L420.5,540.6406 L430.5,540.6406 L420.5,530.6406 " fill="#FBFB77" style="stroke:#A80036;stroke-width:1.0;"/><text fill="#000000" font-family="sans-serif" font-size="13" lengthAdjust="spacing" textLength="158" x="233.5" y="549.1357">Entry: showErrorMessage()</text><text fill="#000000" font-family="sans-serif" font-size="13" lengthAdjust="spacing" textLength="98" x="233.5" y="565.4873">Do: handleError()</text><text fill="#000000" font-family="sans-serif" font-size="13" lengthAdjust="spacing" textLength="112" x="233.5" y="581.8389">Exit: cleanupError()</text><text fill="#000000" font-family="sans-serif" font-size="13" lengthAdjust="spacing" textLength="0" x="237.5" y="598.1904"/><text fill="#000000" font-family="sans-serif" font-size="13" lengthAdjust="spacing" textLength="149" x="233.5" y="614.542">- Fehlermeldung anzeigen</text><text fill="#000000" font-family="sans-serif" font-size="13" lengthAdjust="spacing" textLength="182" x="233.5" y="630.8936">- Retry-Mechanismus aktivieren</text><text fill="#000000" font-family="sans-serif" font-size="13" lengthAdjust="spacing" textLength="127" x="233.5" y="647.2451">- Log-Eintrag erstellen</text><text fill="#000000" font-family="sans-serif" font-size="13" lengthAdjust="spacing" textLength="144" x="233.5" y="663.5967">- Retry nach 5 Sekunden</text><path d="M1108,749.6406 L1108,874.1016 L1332,874.1016 L1332,759.6406 L1322,749.6406 L1108,749.6406 " fill="#FBFB77" filter="url(#f1hipqvsgprab7)" style="stroke:#A80036;stroke-width:1.0;"/><path d="M1322,749.6406 L1322,759.6406 L1332,759.6406 L1322,749.6406 " fill="#FBFB77" style="stroke:#A80036;stroke-width:1.0;"/><text fill="#000000" font-family="sans-serif" font-size="13" lengthAdjust="spacing" textLength="197" x="1114" y="768.1357">Entry: activateMaintenanceMode()</text><text fill="#000000" font-family="sans-serif" font-size="13" lengthAdjust="spacing" textLength="126" x="1114" y="784.4873">Do: maintainSystem()</text><text fill="#000000" font-family="sans-serif" font-size="13" lengthAdjust="spacing" textLength="203" x="1114" y="800.8389">Exit: deactivateMaintenanceMode()</text><text fill="#000000" font-family="sans-serif" font-size="13" lengthAdjust="spacing" textLength="0" x="1118" y="817.1904"/><text fill="#000000" font-family="sans-serif" font-size="13" lengthAdjust="spacing" textLength="123" x="1114" y="833.542">- "Wartung" anzeigen</text><text fill="#000000" font-family="sans-serif" font-size="13" lengthAdjust="spacing" textLength="160" x="1114" y="849.8936">- Alle Anzeigen deaktivieren</text><text fill="#000000" font-family="sans-serif" font-size="13" lengthAdjust="spacing" textLength="144" x="1114" y="866.2451">- Wartungssignal senden</text><path d="M999,934.6406 L999,1075.4531 A0,0 0 0 0 999,1075.4531 L1441,1075.4531 A0,0 0 0 0 1441,1075.4531 L1441,944.6406 L1431,934.6406 L1224,934.6406 L1220,873.7606 L1216,934.6406 L999,934.6406 A0,0 0 0 0 999,934.6406 " fill="#FBFB77" filter="url(#f1hipqvsgprab7)" style="stroke:#A80036;stroke-width:1.0;"/><path d="M1431,934.6406 L1431,944.6406 L1441,944.6406 L1431,934.6406 " fill="#FBFB77" style="stroke:#A80036;stroke-width:1.0;"/><text fill="#000000" font-family="sans-serif" font-size="13" lengthAdjust="spacing" textLength="316" x="1005" y="953.1357">DIAGRAMMTYP: Zustaendsdiagramm (State Diagram)</text><text fill="#000000" font-family="sans-serif" font-size="13" lengthAdjust="spacing" textLength="421" x="1005" y="969.4873">ZIEL: Darstellung der verschiedenen Systemzustaende und Uebergaenge</text><text fill="#000000" font-family="sans-serif" font-size="13" lengthAdjust="spacing" textLength="0" x="1009" y="985.8389"/><text fill="#000000" font-family="sans-serif" font-size="13" lengthAdjust="spacing" textLength="165" x="1005" y="1002.1904">Performance-Optimierungen:</text><text fill="#000000" font-family="sans-serif" font-size="13" lengthAdjust="spacing" textLength="167" x="1005" y="1018.542">- Daten-Cache: 30 Sekunden</text><text fill="#000000" font-family="sans-serif" font-size="13" lengthAdjust="spacing" textLength="129" x="1005" y="1034.8936">- Asynchrone Updates</text><text fill="#000000" font-family="sans-serif" font-size="13" lengthAdjust="spacing" textLength="129" x="1005" y="1051.2451">- Event-driven Updates</text><text fill="#000000" font-family="sans-serif" font-size="13" lengthAdjust="spacing" textLength="99" x="1005" y="1067.5967">- Non-blocking UI</text><!--MD5=[f2f6219ae7ccefc19d6be64e05620204]
link *start to Initialisierung--><path d="M58,48.9006 C58,70.3406 58,124.1806 58,158.1306 " fill="none" id="*start-to-Initialisierung" style="stroke:#A80036;stroke-width:1.0;"/><polygon fill="#A80036" points="58,163.4006,62,154.4006,58,158.4006,54,154.4006,58,163.4006" style="stroke:#A80036;stroke-width:1.0;"/><text fill="#000000" font-family="sans-serif" font-size="13" lengthAdjust="spacing" textLength="86" x="59" y="93.1357">System startet</text><!--MD5=[452557aaac53a0cb6f9a07eb7db52635]
link Initialisierung to Daten_laden--><path d="M80.47,213.7606 C92.95,226.0806 109.3,240.5606 126,250.6406 C230.99,314.0106 369.61,356.1106 445.48,376.1106 " fill="none" id="Initialisierung-to-Daten_laden" style="stroke:#A80036;stroke-width:1.0;"/><polygon fill="#A80036" points="450.38,377.4006,442.6907,371.2464,445.5439,376.131,440.6593,378.9841,450.38,377.4006" style="stroke:#A80036;stroke-width:1.0;"/><text fill="#000000" font-family="sans-serif" font-size="13" lengthAdjust="spacing" textLength="109" x="214" y="295.1357">Alle Daten geladen</text><!--MD5=[473ce6e56f1abddd79296caa4aff640b]
link Daten_laden to Anzeige_aktualisieren--><path d="M527.52,415.8006 C540.21,427.1706 555.72,440.8006 570,452.6406 C622.27,495.9606 684.78,543.7506 723.44,572.8506 " fill="none" id="Daten_laden-to-Anzeige_aktualisieren" style="stroke:#A80036;stroke-width:1.0;"/><polygon fill="#A80036" points="727.57,575.9606,722.8045,567.3415,723.582,572.9446,717.9789,573.7222,727.57,575.9606" style="stroke:#A80036;stroke-width:1.0;"/><text fill="#000000" font-family="sans-serif" font-size="13" lengthAdjust="spacing" textLength="146" x="627" y="497.1357">Daten erfolgreich geladen</text><!--MD5=[844d577fba4dff8c3ac13d7742166ca1]
link Anzeige_aktualisieren to Warten_auf_Aenderungen--><path d="M760,626.4706 C760,664.9906 760,739.9206 760,781.3406 " fill="none" id="Anzeige_aktualisieren-to-Warten_auf_Aenderungen" style="stroke:#A80036;stroke-width:1.0;"/><polygon fill="#A80036" points="760,786.4706,764,777.4706,760,781.4706,756,777.4706,760,786.4706" style="stroke:#A80036;stroke-width:1.0;"/><text fill="#000000" font-family="sans-serif" font-size="13" lengthAdjust="spacing" textLength="110" x="761" y="716.1357">Display aktualisiert</text><!--MD5=[542b1d21f17b1c53a18f6a14150368ba]
link Warten_auf_Aenderungen to Daten_laden--><path d="M799.14,786.6006 C820.2,774.3706 846.92,759.9606 872,749.6406 C987.11,702.2606 1066.23,771.1706 1141,671.6406 C1178.64,621.5406 1182.2,577.8606 1141,530.6406 C1056.79,434.1506 686.42,506.0106 570,452.6406 C553.14,444.9106 537.39,431.6606 525.21,419.4806 " fill="none" id="Warten_auf_Aenderungen-to-Daten_laden" style="stroke:#A80036;stroke-width:1.0;"/><polygon fill="#A80036" points="521.55,415.7406,524.9925,424.9683,525.0496,419.3117,530.7062,419.3688,521.55,415.7406" style="stroke:#A80036;stroke-width:1.0;"/><text fill="#000000" font-family="sans-serif" font-size="13" lengthAdjust="spacing" textLength="131" x="1171" y="606.6357">Timer abgelaufen (30s)</text><!--MD5=[542b1d21f17b1c53a18f6a14150368ba]
link Warten_auf_Aenderungen to Daten_laden--><path d="M795.75,786.6006 C817,773.5006 845,758.2506 872,749.6406 C1060.79,689.4106 1189.44,828.1406 1311,671.6406 C1349.44,622.1506 1350.55,579.2506 1311,530.6406 C1206.51,402.2006 723.06,515.8006 570,452.6406 C552.59,445.4506 536.59,431.9606 524.39,419.4906 " fill="none" id="Warten_auf_Aenderungen-to-Daten_laden-1" style="stroke:#A80036;stroke-width:1.0;"/><polygon fill="#A80036" points="520.73,415.6606,524.0604,424.9293,524.1861,419.2738,529.8416,419.3995,520.73,415.6606" style="stroke:#A80036;stroke-width:1.0;"/><text fill="#000000" font-family="sans-serif" font-size="13" lengthAdjust="spacing" textLength="143" x="1341" y="606.6357">Einfahrt/Ausfahrt erkannt</text><!--MD5=[542b1d21f17b1c53a18f6a14150368ba]
link Warten_auf_Aenderungen to Daten_laden--><path d="M679.26,786.6006 C624.15,765.6506 554.88,729.3906 519,671.6406 C469.82,592.4806 484.1,475.2406 494.45,421.0606 " fill="none" id="Warten_auf_Aenderungen-to-Daten_laden-2" style="stroke:#A80036;stroke-width:1.0;"/><polygon fill="#A80036" points="495.44,416.0206,489.7888,424.0868,494.4814,420.9279,497.6404,425.6205,495.44,416.0206" style="stroke:#A80036;stroke-width:1.0;"/><text fill="#000000" font-family="sans-serif" font-size="13" lengthAdjust="spacing" textLength="143" x="520" y="606.6357">Manueller Update-Button</text><!--MD5=[3d6718ce23bfde09a151f7fc1b515401]
link Daten_laden to Fehlerzustand--><path d="M472.66,415.6406 C441.92,440.4806 390.44,478.6606 340,500.6406 C285.64,524.3306 262.21,502.5306 210,530.6406 C190.85,540.9506 173.08,557.6406 159.87,572.0706 " fill="none" id="Daten_laden-to-Fehlerzustand" style="stroke:#A80036;stroke-width:1.0;"/><polygon fill="#A80036" points="156.27,576.0806,165.2639,572.0668,159.6148,572.3642,159.3175,566.7151,156.27,576.0806" style="stroke:#A80036;stroke-width:1.0;"/><text fill="#000000" font-family="sans-serif" font-size="13" lengthAdjust="spacing" textLength="93" x="374" y="497.1357">Datenbankfehler</text><!--MD5=[765cd2df3a88330f757c6c7e37221ef5]
link Fehlerzustand to Daten_laden--><path d="M146.9,575.8506 C158.94,549.2506 181.74,507.1106 214,482.6406 C283.17,430.1806 383.38,407.4906 445.25,398.0206 " fill="none" id="Fehlerzustand-to-Daten_laden" style="stroke:#A80036;stroke-width:1.0;"/><polygon fill="#A80036" points="450.38,397.2506,440.8855,394.6326,445.4355,397.9937,442.0744,402.5438,450.38,397.2506" style="stroke:#A80036;stroke-width:1.0;"/><text fill="#000000" font-family="sans-serif" font-size="13" lengthAdjust="spacing" textLength="116" x="215" y="497.1357">Retry-Mechanismus</text><!--MD5=[cbcbc7947e8b3c534a87b5141dfd879b]
link Fehlerzustand to Wartungsmodus--><path d="M137,626.4706 C137,664.9906 137,739.9206 137,781.3406 " fill="none" id="Fehlerzustand-to-Wartungsmodus" style="stroke:#A80036;stroke-width:1.0;"/><polygon fill="#A80036" points="137,786.4706,141,777.4706,137,781.4706,133,777.4706,137,786.4706" style="stroke:#A80036;stroke-width:1.0;"/><text fill="#000000" font-family="sans-serif" font-size="13" lengthAdjust="spacing" textLength="136" x="138" y="716.1357">Retry-Limit erreicht (3x)</text><!--MD5=[7e8cb800d12ec23e42f378b323b884a5]
link Wartungsmodus to Initialisierung--><path d="M120.85,786.1606 C103.89,759.2406 77.82,714.1506 64,671.6406 C10.74,507.8406 39.24,295.8806 52.46,219.0706 " fill="none" id="Wartungsmodus-to-Initialisierung" style="stroke:#A80036;stroke-width:1.0;"/><polygon fill="#A80036" points="53.38,213.7706,47.8971,221.9522,52.5233,218.6967,55.7788,223.3229,53.38,213.7706" style="stroke:#A80036;stroke-width:1.0;"/><text fill="#000000" font-family="sans-serif" font-size="13" lengthAdjust="spacing" textLength="145" x="36" y="497.1357">Wartungsmodus beendet</text><!--MD5=[56ddb5b95fdc31fd005c700d09ed2472]
link Wartungsmodus to GMN35--><path d="M198.63,788.2606 C350.9,734.0406 755.56,611.6606 1073.5,710.6406 C1099.9,718.8606 1125.75,733.6706 1148.2,749.4706 " fill="none" id="Wartungsmodus-GMN35" style="stroke:#A80036;stroke-width:1.0;stroke-dasharray:7.0,7.0;"/><!--MD5=[c9ba53917be8f82c049eed51049a6965]
@startuml Zustandsdiagramm_Anzeige_Freie_Plaetze

title ZUSTANDSDIAGRAMM - Anzeige der freien Parkplaetze

[*] - -> Initialisierung : System startet

Initialisierung - -> Daten_laden : Alle Daten geladen
Daten_laden - -> Anzeige_aktualisieren : Daten erfolgreich geladen
Anzeige_aktualisieren - -> Warten_auf_Aenderungen : Display aktualisiert

Warten_auf_Aenderungen - -> Daten_laden : Timer abgelaufen (30s)
Warten_auf_Aenderungen - -> Daten_laden : Einfahrt/Ausfahrt erkannt
Warten_auf_Aenderungen - -> Daten_laden : Manueller Update-Button

Daten_laden - -> Fehlerzustand : Datenbankfehler
Fehlerzustand - -> Daten_laden : Retry-Mechanismus
Fehlerzustand - -> Wartungsmodus : Retry-Limit erreicht (3x)

Wartungsmodus - -> Initialisierung : Wartungsmodus beendet

note right of Initialisierung
  Entry: loadSystemConfig()
  Do: initializeSystem()
  Exit: cleanupInitialization()

  - Datenbankverbindung herstellen
  - Parkhaus-Konfiguration laden
  - Alle Parkplaetze abfragen
end note

note right of Daten_laden
  Entry: executeDatabaseQuery()
  Do: loadParkingData()
  Exit: cleanupQuery()

  - SQL-Query ausfuehren
  - Status aller Parkplaetze ermitteln
  - Freie Plaetze zaehlen
end note

note right of Anzeige_aktualisieren
  Entry: updateDisplay()
  Do: refreshDisplay()
  Exit: cleanupDisplay()

  - Freie Plaetze pro Ebene anzeigen
  - Gesamtanzahl freier Plaetze anzeigen
  - Farbkodierung aktualisieren
  (Gruen = frei, Rot = besetzt)
end note

note right of Warten_auf_Aenderungen
  Entry: startTimer()
  Do: monitorEvents()
  Exit: stopTimer()

  - Timer laeuft (30 Sekunden)
  - Event-Listener aktiv
  - Keine Anzeige-Updates
end note

note right of Fehlerzustand
  Entry: showErrorMessage()
  Do: handleError()
  Exit: cleanupError()

  - Fehlermeldung anzeigen
  - Retry-Mechanismus aktivieren
  - Log-Eintrag erstellen
  - Retry nach 5 Sekunden
end note

note right of Wartungsmodus
  Entry: activateMaintenanceMode()
  Do: maintainSystem()
  Exit: deactivateMaintenanceMode()

  - "Wartung" anzeigen
  - Alle Anzeigen deaktivieren
  - Wartungssignal senden
end note

note bottom
  DIAGRAMMTYP: Zustaendsdiagramm (State Diagram)
  ZIEL: Darstellung der verschiedenen Systemzustaende und Uebergaenge

  Performance-Optimierungen:
  - Daten-Cache: 30 Sekunden
  - Asynchrone Updates
  - Event-driven Updates
  - Non-blocking UI
end note

@enduml

PlantUML version 1.2021.00(Sun Jan 10 11:25:05 CET 2021)
(MIT source distribution)
Java Runtime: Java(TM) SE Runtime Environment
JVM: Java HotSpot(TM) 64-Bit Server VM
Default Encoding: Cp1252
Language: de
Country: DE
--></g></svg>