<?xml version="1.0" encoding="UTF-8" standalone="no"?><svg xmlns="http://www.w3.org/2000/svg" xmlns:xlink="http://www.w3.org/1999/xlink" contentScriptType="application/ecmascript" contentStyleType="text/css" height="570px" preserveAspectRatio="none" style="width:556px;height:570px;" version="1.1" viewBox="0 0 556 570" width="556px" zoomAndPan="magnify"><defs><filter height="300%" id="fvagbu17p2k3" width="300%" x="-1" y="-1"><feGaussianBlur result="blurOut" stdDeviation="2.0"/><feColorMatrix in="blurOut" result="blurOut2" type="matrix" values="0 0 0 0 0 0 0 0 0 0 0 0 0 0 0 0 0 0 .4 0"/><feOffset dx="4.0" dy="4.0" in="blurOut2" result="blurOut3"/><feBlend in="SourceGraphic" in2="blurOut3" mode="normal"/></filter></defs><g><text fill="#000000" font-family="sans-serif" font-size="18" lengthAdjust="spacing" textLength="383" x="80.25" y="18.6855">Relationales Datenmodell - Parkhausverwaltung</text><!--MD5=[5a6a14e9102f0aa1161daa97ed71a643]
class Parkhaeuser--><rect codeLine="4" fill="#FEFECE" filter="url(#fvagbu17p2k3)" height="117.1797" id="Parkhaeuser" style="stroke:#A80036;stroke-width:1.5;" width="164" x="116" y="29.6406"/><ellipse cx="158.45" cy="45.6406" fill="#ADD1B2" rx="11" ry="11" style="stroke:#A80036;stroke-width:1.0;"/><path d="M161.2156,41.5156 Q161.3719,41.2969 161.5594,41.1875 Q161.7469,41.0781 161.9656,41.0781 Q162.3406,41.0781 162.575,41.3438 Q162.8094,41.5938 162.8094,42.2031 L162.8094,43.6563 Q162.8094,44.2656 162.575,44.5313 Q162.3406,44.7969 161.9656,44.7969 Q161.6219,44.7969 161.4188,44.5938 Q161.2156,44.4063 161.1063,43.8906 Q161.0594,43.5313 160.8719,43.3438 Q160.5438,42.9688 159.9344,42.75 Q159.325,42.5313 158.7,42.5313 Q157.9344,42.5313 157.2938,42.8594 Q156.6688,43.1875 156.1688,43.9375 Q155.6844,44.6875 155.6844,45.7188 L155.6844,46.8125 Q155.6844,48.0469 156.575,48.875 Q157.4656,49.6875 159.0594,49.6875 Q159.9969,49.6875 160.6531,49.4375 Q161.0438,49.2813 161.4656,48.8438 Q161.7313,48.5781 161.8719,48.5 Q162.0281,48.4219 162.2313,48.4219 Q162.5594,48.4219 162.8094,48.6875 Q163.075,48.9375 163.075,49.2813 Q163.075,49.625 162.7313,50.0313 Q162.2313,50.6094 161.4344,50.9375 Q160.3563,51.3906 159.0594,51.3906 Q157.5438,51.3906 156.3406,50.7656 Q155.3563,50.2656 154.6688,49.2031 Q153.9813,48.125 153.9813,46.8438 L153.9813,45.6875 Q153.9813,44.3594 154.5906,43.2188 Q155.2156,42.0625 156.3094,41.4531 Q157.4031,40.8281 158.6375,40.8281 Q159.3719,40.8281 160.0125,41 Q160.6688,41.1563 161.2156,41.5156 Z " fill="#000000"/><text fill="#000000" font-family="sans-serif" font-size="12" lengthAdjust="spacing" textLength="71" x="178.55" y="50.5508">Parkhaeuser</text><line style="stroke:#A80036;stroke-width:1.5;" x1="117" x2="279" y1="61.6406" y2="61.6406"/><ellipse cx="127" cy="72.6406" fill="none" rx="3" ry="3" style="stroke:#038048;stroke-width:1.0;"/><text fill="#000000" font-family="sans-serif" font-size="11" lengthAdjust="spacing" textLength="32" x="136" y="77.0596">id : INT</text><text fill="#000000" font-family="sans-serif" font-size="11" lengthAdjust="spacing" textLength="87" x="136" y="90.8955">name : VARCHAR</text><text fill="#000000" font-family="sans-serif" font-size="11" lengthAdjust="spacing" textLength="98" x="136" y="104.7314">anzahl_ebenen : INT</text><text fill="#000000" font-family="sans-serif" font-size="11" lengthAdjust="spacing" textLength="138" x="136" y="118.5674">parkplaetze_pro_ebene : INT</text><text fill="#000000" font-family="sans-serif" font-size="11" lengthAdjust="spacing" textLength="138" x="136" y="132.4033">preis_pro_stunde : DECIMAL</text><line style="stroke:#A80036;stroke-width:1.5;" x1="117" x2="279" y1="138.8203" y2="138.8203"/><!--MD5=[00d16ac6b93f6e4b9cf72b6418c554a9]
class Parkplaetze--><rect codeLine="12" fill="#FEFECE" filter="url(#fvagbu17p2k3)" height="117.1797" id="Parkplaetze" style="stroke:#A80036;stroke-width:1.5;" width="138" x="7" y="227.6406"/><ellipse cx="40.9" cy="243.6406" fill="#ADD1B2" rx="11" ry="11" style="stroke:#A80036;stroke-width:1.0;"/><path d="M43.6656,239.5156 Q43.8219,239.2969 44.0094,239.1875 Q44.1969,239.0781 44.4156,239.0781 Q44.7906,239.0781 45.025,239.3438 Q45.2594,239.5938 45.2594,240.2031 L45.2594,241.6563 Q45.2594,242.2656 45.025,242.5313 Q44.7906,242.7969 44.4156,242.7969 Q44.0719,242.7969 43.8688,242.5938 Q43.6656,242.4063 43.5563,241.8906 Q43.5094,241.5313 43.3219,241.3438 Q42.9938,240.9688 42.3844,240.75 Q41.775,240.5313 41.15,240.5313 Q40.3844,240.5313 39.7438,240.8594 Q39.1188,241.1875 38.6188,241.9375 Q38.1344,242.6875 38.1344,243.7188 L38.1344,244.8125 Q38.1344,246.0469 39.025,246.875 Q39.9156,247.6875 41.5094,247.6875 Q42.4469,247.6875 43.1031,247.4375 Q43.4938,247.2813 43.9156,246.8438 Q44.1813,246.5781 44.3219,246.5 Q44.4781,246.4219 44.6813,246.4219 Q45.0094,246.4219 45.2594,246.6875 Q45.525,246.9375 45.525,247.2813 Q45.525,247.625 45.1813,248.0313 Q44.6813,248.6094 43.8844,248.9375 Q42.8063,249.3906 41.5094,249.3906 Q39.9938,249.3906 38.7906,248.7656 Q37.8063,248.2656 37.1188,247.2031 Q36.4313,246.125 36.4313,244.8438 L36.4313,243.6875 Q36.4313,242.3594 37.0406,241.2188 Q37.6656,240.0625 38.7594,239.4531 Q39.8531,238.8281 41.0875,238.8281 Q41.8219,238.8281 42.4625,239 Q43.1188,239.1563 43.6656,239.5156 Z " fill="#000000"/><text fill="#000000" font-family="sans-serif" font-size="12" lengthAdjust="spacing" textLength="64" x="59.1" y="248.5508">Parkplaetze</text><line style="stroke:#A80036;stroke-width:1.5;" x1="8" x2="144" y1="259.6406" y2="259.6406"/><ellipse cx="18" cy="270.6406" fill="none" rx="3" ry="3" style="stroke:#038048;stroke-width:1.0;"/><text fill="#000000" font-family="sans-serif" font-size="11" lengthAdjust="spacing" textLength="32" x="27" y="275.0596">id : INT</text><text fill="#000000" font-family="sans-serif" font-size="11" lengthAdjust="spacing" textLength="83" x="27" y="288.8955">parkhaus_id : INT</text><text fill="#000000" font-family="sans-serif" font-size="11" lengthAdjust="spacing" textLength="54" x="27" y="302.7314">ebene : INT</text><text fill="#000000" font-family="sans-serif" font-size="11" lengthAdjust="spacing" textLength="112" x="27" y="316.5674">parkplatz_nummer : INT</text><text fill="#000000" font-family="sans-serif" font-size="11" lengthAdjust="spacing" textLength="91" x="27" y="330.4033">status : VARCHAR</text><line style="stroke:#A80036;stroke-width:1.5;" x1="8" x2="144" y1="336.8203" y2="336.8203"/><!--MD5=[a80d7f1cb2401d521b543183251d8848]
class Fahrzeuge--><rect codeLine="20" fill="#FEFECE" filter="url(#fvagbu17p2k3)" height="117.1797" id="Fahrzeuge" style="stroke:#A80036;stroke-width:1.5;" width="148" x="353" y="29.6406"/><ellipse cx="394.1" cy="45.6406" fill="#ADD1B2" rx="11" ry="11" style="stroke:#A80036;stroke-width:1.0;"/><path d="M396.8656,41.5156 Q397.0219,41.2969 397.2094,41.1875 Q397.3969,41.0781 397.6156,41.0781 Q397.9906,41.0781 398.225,41.3438 Q398.4594,41.5938 398.4594,42.2031 L398.4594,43.6563 Q398.4594,44.2656 398.225,44.5313 Q397.9906,44.7969 397.6156,44.7969 Q397.2719,44.7969 397.0688,44.5938 Q396.8656,44.4063 396.7563,43.8906 Q396.7094,43.5313 396.5219,43.3438 Q396.1938,42.9688 395.5844,42.75 Q394.975,42.5313 394.35,42.5313 Q393.5844,42.5313 392.9438,42.8594 Q392.3188,43.1875 391.8188,43.9375 Q391.3344,44.6875 391.3344,45.7188 L391.3344,46.8125 Q391.3344,48.0469 392.225,48.875 Q393.1156,49.6875 394.7094,49.6875 Q395.6469,49.6875 396.3031,49.4375 Q396.6938,49.2813 397.1156,48.8438 Q397.3813,48.5781 397.5219,48.5 Q397.6781,48.4219 397.8813,48.4219 Q398.2094,48.4219 398.4594,48.6875 Q398.725,48.9375 398.725,49.2813 Q398.725,49.625 398.3813,50.0313 Q397.8813,50.6094 397.0844,50.9375 Q396.0063,51.3906 394.7094,51.3906 Q393.1938,51.3906 391.9906,50.7656 Q391.0063,50.2656 390.3188,49.2031 Q389.6313,48.125 389.6313,46.8438 L389.6313,45.6875 Q389.6313,44.3594 390.2406,43.2188 Q390.8656,42.0625 391.9594,41.4531 Q393.0531,40.8281 394.2875,40.8281 Q395.0219,40.8281 395.6625,41 Q396.3188,41.1563 396.8656,41.5156 Z " fill="#000000"/><text fill="#000000" font-family="sans-serif" font-size="12" lengthAdjust="spacing" textLength="58" x="413.9" y="50.5508">Fahrzeuge</text><line style="stroke:#A80036;stroke-width:1.5;" x1="354" x2="500" y1="61.6406" y2="61.6406"/><ellipse cx="364" cy="72.6406" fill="none" rx="3" ry="3" style="stroke:#038048;stroke-width:1.0;"/><text fill="#000000" font-family="sans-serif" font-size="11" lengthAdjust="spacing" textLength="32" x="373" y="77.0596">id : INT</text><text fill="#000000" font-family="sans-serif" font-size="11" lengthAdjust="spacing" textLength="122" x="373" y="90.8955">kennzeichen : VARCHAR</text><text fill="#000000" font-family="sans-serif" font-size="11" lengthAdjust="spacing" textLength="90" x="373" y="104.7314">marke : VARCHAR</text><text fill="#000000" font-family="sans-serif" font-size="11" lengthAdjust="spacing" textLength="91" x="373" y="118.5674">modell : VARCHAR</text><text fill="#000000" font-family="sans-serif" font-size="11" lengthAdjust="spacing" textLength="87" x="373" y="132.4033">farbe : VARCHAR</text><line style="stroke:#A80036;stroke-width:1.5;" x1="354" x2="500" y1="138.8203" y2="138.8203"/><!--MD5=[dd166d214757fe8776744aff26ec2546]
class Tickets--><rect codeLine="28" fill="#FEFECE" filter="url(#fvagbu17p2k3)" height="158.6875" id="Tickets" style="stroke:#A80036;stroke-width:1.5;" width="161" x="251.5" y="206.6406"/><ellipse cx="308.25" cy="222.6406" fill="#ADD1B2" rx="11" ry="11" style="stroke:#A80036;stroke-width:1.0;"/><path d="M311.0156,218.5156 Q311.1719,218.2969 311.3594,218.1875 Q311.5469,218.0781 311.7656,218.0781 Q312.1406,218.0781 312.375,218.3438 Q312.6094,218.5938 312.6094,219.2031 L312.6094,220.6563 Q312.6094,221.2656 312.375,221.5313 Q312.1406,221.7969 311.7656,221.7969 Q311.4219,221.7969 311.2188,221.5938 Q311.0156,221.4063 310.9063,220.8906 Q310.8594,220.5313 310.6719,220.3438 Q310.3438,219.9688 309.7344,219.75 Q309.125,219.5313 308.5,219.5313 Q307.7344,219.5313 307.0938,219.8594 Q306.4688,220.1875 305.9688,220.9375 Q305.4844,221.6875 305.4844,222.7188 L305.4844,223.8125 Q305.4844,225.0469 306.375,225.875 Q307.2656,226.6875 308.8594,226.6875 Q309.7969,226.6875 310.4531,226.4375 Q310.8438,226.2813 311.2656,225.8438 Q311.5313,225.5781 311.6719,225.5 Q311.8281,225.4219 312.0313,225.4219 Q312.3594,225.4219 312.6094,225.6875 Q312.875,225.9375 312.875,226.2813 Q312.875,226.625 312.5313,227.0313 Q312.0313,227.6094 311.2344,227.9375 Q310.1563,228.3906 308.8594,228.3906 Q307.3438,228.3906 306.1406,227.7656 Q305.1563,227.2656 304.4688,226.2031 Q303.7813,225.125 303.7813,223.8438 L303.7813,222.6875 Q303.7813,221.3594 304.3906,220.2188 Q305.0156,219.0625 306.1094,218.4531 Q307.2031,217.8281 308.4375,217.8281 Q309.1719,217.8281 309.8125,218 Q310.4688,218.1563 311.0156,218.5156 Z " fill="#000000"/><text fill="#000000" font-family="sans-serif" font-size="12" lengthAdjust="spacing" textLength="39" x="328.75" y="227.5508">Tickets</text><line style="stroke:#A80036;stroke-width:1.5;" x1="252.5" x2="411.5" y1="238.6406" y2="238.6406"/><ellipse cx="262.5" cy="249.6406" fill="none" rx="3" ry="3" style="stroke:#038048;stroke-width:1.0;"/><text fill="#000000" font-family="sans-serif" font-size="11" lengthAdjust="spacing" textLength="32" x="271.5" y="254.0596">id : INT</text><text fill="#000000" font-family="sans-serif" font-size="11" lengthAdjust="spacing" textLength="82" x="271.5" y="267.8955">fahrzeug_id : INT</text><text fill="#000000" font-family="sans-serif" font-size="11" lengthAdjust="spacing" textLength="83" x="271.5" y="281.7314">parkhaus_id : INT</text><text fill="#000000" font-family="sans-serif" font-size="11" lengthAdjust="spacing" textLength="107" x="271.5" y="295.5674">ticket_typ : VARCHAR</text><text fill="#000000" font-family="sans-serif" font-size="11" lengthAdjust="spacing" textLength="124" x="271.5" y="309.4033">einfahrts_zeit : DATETIME</text><text fill="#000000" font-family="sans-serif" font-size="11" lengthAdjust="spacing" textLength="128" x="271.5" y="323.2393">ausfahrts_zeit : DATETIME</text><text fill="#000000" font-family="sans-serif" font-size="11" lengthAdjust="spacing" textLength="135" x="271.5" y="337.0752">gezahlter_betrag : DECIMAL</text><text fill="#000000" font-family="sans-serif" font-size="11" lengthAdjust="spacing" textLength="91" x="271.5" y="350.9111">status : VARCHAR</text><line style="stroke:#A80036;stroke-width:1.5;" x1="252.5" x2="411.5" y1="357.3281" y2="357.3281"/><!--MD5=[9b7c809ec1e01d308c982e6a063fce7d]
class Zahlungen--><rect codeLine="39" fill="#FEFECE" filter="url(#fvagbu17p2k3)" height="131.0156" id="Zahlungen" style="stroke:#A80036;stroke-width:1.5;" width="151" x="391.5" y="425.6406"/><ellipse cx="433.5" cy="441.6406" fill="#ADD1B2" rx="11" ry="11" style="stroke:#A80036;stroke-width:1.0;"/><path d="M436.2656,437.5156 Q436.4219,437.2969 436.6094,437.1875 Q436.7969,437.0781 437.0156,437.0781 Q437.3906,437.0781 437.625,437.3438 Q437.8594,437.5938 437.8594,438.2031 L437.8594,439.6563 Q437.8594,440.2656 437.625,440.5313 Q437.3906,440.7969 437.0156,440.7969 Q436.6719,440.7969 436.4688,440.5938 Q436.2656,440.4063 436.1563,439.8906 Q436.1094,439.5313 435.9219,439.3438 Q435.5938,438.9688 434.9844,438.75 Q434.375,438.5313 433.75,438.5313 Q432.9844,438.5313 432.3438,438.8594 Q431.7188,439.1875 431.2188,439.9375 Q430.7344,440.6875 430.7344,441.7188 L430.7344,442.8125 Q430.7344,444.0469 431.625,444.875 Q432.5156,445.6875 434.1094,445.6875 Q435.0469,445.6875 435.7031,445.4375 Q436.0938,445.2813 436.5156,444.8438 Q436.7813,444.5781 436.9219,444.5 Q437.0781,444.4219 437.2813,444.4219 Q437.6094,444.4219 437.8594,444.6875 Q438.125,444.9375 438.125,445.2813 Q438.125,445.625 437.7813,446.0313 Q437.2813,446.6094 436.4844,446.9375 Q435.4063,447.3906 434.1094,447.3906 Q432.5938,447.3906 431.3906,446.7656 Q430.4063,446.2656 429.7188,445.2031 Q429.0313,444.125 429.0313,442.8438 L429.0313,441.6875 Q429.0313,440.3594 429.6406,439.2188 Q430.2656,438.0625 431.3594,437.4531 Q432.4531,436.8281 433.6875,436.8281 Q434.4219,436.8281 435.0625,437 Q435.7188,437.1563 436.2656,437.5156 Z " fill="#000000"/><text fill="#000000" font-family="sans-serif" font-size="12" lengthAdjust="spacing" textLength="59" x="453.5" y="446.5508">Zahlungen</text><line style="stroke:#A80036;stroke-width:1.5;" x1="392.5" x2="541.5" y1="457.6406" y2="457.6406"/><ellipse cx="402.5" cy="468.6406" fill="none" rx="3" ry="3" style="stroke:#038048;stroke-width:1.0;"/><text fill="#000000" font-family="sans-serif" font-size="11" lengthAdjust="spacing" textLength="32" x="411.5" y="473.0596">id : INT</text><text fill="#000000" font-family="sans-serif" font-size="11" lengthAdjust="spacing" textLength="63" x="411.5" y="486.8955">ticket_id : INT</text><text fill="#000000" font-family="sans-serif" font-size="11" lengthAdjust="spacing" textLength="118" x="411.5" y="500.7314">zahlungsart : VARCHAR</text><text fill="#000000" font-family="sans-serif" font-size="11" lengthAdjust="spacing" textLength="84" x="411.5" y="514.5674">betrag : DECIMAL</text><text fill="#000000" font-family="sans-serif" font-size="11" lengthAdjust="spacing" textLength="125" x="411.5" y="528.4033">zahlungs_zeit : DATETIME</text><text fill="#000000" font-family="sans-serif" font-size="11" lengthAdjust="spacing" textLength="91" x="411.5" y="542.2393">status : VARCHAR</text><line style="stroke:#A80036;stroke-width:1.5;" x1="392.5" x2="541.5" y1="548.6563" y2="548.6563"/><!--MD5=[539f33cfccb6f65107d06f23a5f361d2]
class EinAusfahrten--><rect codeLine="48" fill="#FEFECE" filter="url(#fvagbu17p2k3)" height="131.0156" id="EinAusfahrten" style="stroke:#A80036;stroke-width:1.5;" width="183" x="173.5" y="425.6406"/><ellipse cx="222.25" cy="441.6406" fill="#ADD1B2" rx="11" ry="11" style="stroke:#A80036;stroke-width:1.0;"/><path d="M225.0156,437.5156 Q225.1719,437.2969 225.3594,437.1875 Q225.5469,437.0781 225.7656,437.0781 Q226.1406,437.0781 226.375,437.3438 Q226.6094,437.5938 226.6094,438.2031 L226.6094,439.6563 Q226.6094,440.2656 226.375,440.5313 Q226.1406,440.7969 225.7656,440.7969 Q225.4219,440.7969 225.2188,440.5938 Q225.0156,440.4063 224.9063,439.8906 Q224.8594,439.5313 224.6719,439.3438 Q224.3438,438.9688 223.7344,438.75 Q223.125,438.5313 222.5,438.5313 Q221.7344,438.5313 221.0938,438.8594 Q220.4688,439.1875 219.9688,439.9375 Q219.4844,440.6875 219.4844,441.7188 L219.4844,442.8125 Q219.4844,444.0469 220.375,444.875 Q221.2656,445.6875 222.8594,445.6875 Q223.7969,445.6875 224.4531,445.4375 Q224.8438,445.2813 225.2656,444.8438 Q225.5313,444.5781 225.6719,444.5 Q225.8281,444.4219 226.0313,444.4219 Q226.3594,444.4219 226.6094,444.6875 Q226.875,444.9375 226.875,445.2813 Q226.875,445.625 226.5313,446.0313 Q226.0313,446.6094 225.2344,446.9375 Q224.1563,447.3906 222.8594,447.3906 Q221.3438,447.3906 220.1406,446.7656 Q219.1563,446.2656 218.4688,445.2031 Q217.7813,444.125 217.7813,442.8438 L217.7813,441.6875 Q217.7813,440.3594 218.3906,439.2188 Q219.0156,438.0625 220.1094,437.4531 Q221.2031,436.8281 222.4375,436.8281 Q223.1719,436.8281 223.8125,437 Q224.4688,437.1563 225.0156,437.5156 Z " fill="#000000"/><text fill="#000000" font-family="sans-serif" font-size="12" lengthAdjust="spacing" textLength="77" x="242.75" y="446.5508">EinAusfahrten</text><line style="stroke:#A80036;stroke-width:1.5;" x1="174.5" x2="355.5" y1="457.6406" y2="457.6406"/><ellipse cx="184.5" cy="468.6406" fill="none" rx="3" ry="3" style="stroke:#038048;stroke-width:1.0;"/><text fill="#000000" font-family="sans-serif" font-size="11" lengthAdjust="spacing" textLength="32" x="193.5" y="473.0596">id : INT</text><text fill="#000000" font-family="sans-serif" font-size="11" lengthAdjust="spacing" textLength="83" x="193.5" y="486.8955">parkhaus_id : INT</text><text fill="#000000" font-family="sans-serif" font-size="11" lengthAdjust="spacing" textLength="82" x="193.5" y="500.7314">fahrzeug_id : INT</text><text fill="#000000" font-family="sans-serif" font-size="11" lengthAdjust="spacing" textLength="100" x="193.5" y="514.5674">richtung : VARCHAR</text><text fill="#000000" font-family="sans-serif" font-size="11" lengthAdjust="spacing" textLength="101" x="193.5" y="528.4033">zeitpunkt : DATETIME</text><text fill="#000000" font-family="sans-serif" font-size="11" lengthAdjust="spacing" textLength="157" x="193.5" y="542.2393">schranke_geoeffnet : BOOLEAN</text><line style="stroke:#A80036;stroke-width:1.5;" x1="174.5" x2="355.5" y1="548.6563" y2="548.6563"/><!--MD5=[55136cfc26f63be73aef44b0d494c5e3]
link Parkhaeuser to Parkplaetze--><path codeLine="57" d="M157.73,153.8306 C144.38,175.2906 129.52,199.1606 116.17,220.6006 " fill="none" id="Parkhaeuser-Parkplaetze" style="stroke:#A80036;stroke-width:1.0;"/><line style="stroke:#A80036;stroke-width:1.0;" x1="116.131" x2="116.9922" y1="220.681" y2="230.6439"/><line style="stroke:#A80036;stroke-width:1.0;" x1="116.131" x2="106.8078" y1="220.681" y2="224.2974"/><line style="stroke:#A80036;stroke-width:1.0;" x1="116.131" x2="111.9" y1="220.681" y2="227.4706"/><ellipse cx="119.3042" cy="215.5888" fill="none" rx="4" ry="4" style="stroke:#A80036;stroke-width:1.0;"/><line style="stroke:#A80036;stroke-width:1.0;" x1="156.5509" x2="163.3445" y1="148.1751" y2="152.3997"/><line style="stroke:#A80036;stroke-width:1.0;" x1="154.9667" x2="161.7603" y1="150.7227" y2="154.9473"/><line style="stroke:#A80036;stroke-width:1.0;" x1="157.8354" x2="162.06" y1="153.6842" y2="146.8906"/><!--MD5=[011205a183521e868fe1f5879af66511]
link Parkhaeuser to Tickets--><path codeLine="58" d="M242.02,153.5306 C252.13,168.3106 263.02,184.2506 273.63,199.7606 " fill="none" id="Parkhaeuser-Tickets" style="stroke:#A80036;stroke-width:1.0;"/><line style="stroke:#A80036;stroke-width:1.0;" x1="273.6336" x2="283.1024" y1="199.7775" y2="202.9933"/><line style="stroke:#A80036;stroke-width:1.0;" x1="273.6336" x2="273.1976" y1="199.7775" y2="209.768"/><line style="stroke:#A80036;stroke-width:1.0;" x1="273.6336" x2="278.15" y1="199.7775" y2="206.3806"/><ellipse cx="270.2462" cy="194.8251" fill="none" rx="4" ry="4" style="stroke:#A80036;stroke-width:1.0;"/><line style="stroke:#A80036;stroke-width:1.0;" x1="236.431" x2="243.0387" y1="152.4494" y2="147.9396"/><line style="stroke:#A80036;stroke-width:1.0;" x1="238.1222" x2="244.7299" y1="154.9273" y2="150.4175"/><line style="stroke:#A80036;stroke-width:1.0;" x1="241.9898" x2="237.48" y1="153.4983" y2="146.8906"/><!--MD5=[45f79e604e3711d0b889e78f900c00d2]
link Parkhaeuser to EinAusfahrten--><path codeLine="59" d="M204.43,155.0006 C210.43,211.2306 220.49,294.1206 234,365.6406 C237.18,382.4706 241.25,400.4306 245.38,417.3206 " fill="none" id="Parkhaeuser-EinAusfahrten" style="stroke:#A80036;stroke-width:1.0;"/><line style="stroke:#A80036;stroke-width:1.0;" x1="245.4832" x2="253.2334" y1="417.7461" y2="424.0655"/><line style="stroke:#A80036;stroke-width:1.0;" x1="245.4832" x2="241.5866" y1="417.7461" y2="426.9558"/><line style="stroke:#A80036;stroke-width:1.0;" x1="245.4832" x2="247.41" y1="417.7461" y2="425.5106"/><ellipse cx="244.038" cy="411.9228" fill="none" rx="4" ry="4" style="stroke:#A80036;stroke-width:1.0;"/><line style="stroke:#A80036;stroke-width:1.0;" x1="200.0136" x2="207.9691" y1="151.2997" y2="150.457"/><line style="stroke:#A80036;stroke-width:1.0;" x1="200.3296" x2="208.2851" y1="154.283" y2="153.4403"/><line style="stroke:#A80036;stroke-width:1.0;" x1="204.4127" x2="203.57" y1="154.8561" y2="146.9006"/><!--MD5=[8702ce1561b88c842479d15d82aa32a0]
link Fahrzeuge to Tickets--><path codeLine="61" d="M395.36,154.4306 C388.42,168.7306 380.98,184.0906 373.72,199.0606 " fill="none" id="Fahrzeuge-Tickets" style="stroke:#A80036;stroke-width:1.0;"/><line style="stroke:#A80036;stroke-width:1.0;" x1="373.656" x2="375.5704" y1="199.1801" y2="208.9951"/><line style="stroke:#A80036;stroke-width:1.0;" x1="373.656" x2="364.7696" y1="199.1801" y2="203.7661"/><line style="stroke:#A80036;stroke-width:1.0;" x1="373.656" x2="370.17" y1="199.1801" y2="206.3806"/><ellipse cx="376.2705" cy="193.7797" fill="none" rx="4" ry="4" style="stroke:#A80036;stroke-width:1.0;"/><line style="stroke:#A80036;stroke-width:1.0;" x1="393.6638" x2="400.8587" y1="148.7393" y2="152.2369"/><line style="stroke:#A80036;stroke-width:1.0;" x1="392.3522" x2="399.5471" y1="151.4374" y2="154.935"/><line style="stroke:#A80036;stroke-width:1.0;" x1="395.5125" x2="399.01" y1="154.0856" y2="146.8906"/><!--MD5=[9f7a109481946850223a4c95dc0f04b7]
link Fahrzeuge to EinAusfahrten--><path codeLine="62" d="M443.85,154.8706 C455.23,213.3806 462.87,299.6706 430,365.6406 C421.82,382.0606 393.86,405.2206 363.23,427.1206 " fill="none" id="Fahrzeuge-EinAusfahrten" style="stroke:#A80036;stroke-width:1.0;"/><line style="stroke:#A80036;stroke-width:1.0;" x1="363.183" x2="360.113" y1="427.1532" y2="436.6704"/><line style="stroke:#A80036;stroke-width:1.0;" x1="363.183" x2="353.187" y1="427.1532" y2="426.8709"/><line style="stroke:#A80036;stroke-width:1.0;" x1="363.183" x2="356.65" y1="427.1532" y2="431.7706"/><ellipse cx="368.0827" cy="423.6902" fill="none" rx="4" ry="4" style="stroke:#A80036;stroke-width:1.0;"/><line style="stroke:#A80036;stroke-width:1.0;" x1="439.102" x2="446.9434" y1="151.514" y2="149.9286"/><line style="stroke:#A80036;stroke-width:1.0;" x1="439.6966" x2="447.5379" y1="154.4545" y2="152.8691"/><line style="stroke:#A80036;stroke-width:1.0;" x1="443.8154" x2="442.23" y1="154.642" y2="146.8006"/><!--MD5=[1261d01441ab53db0709fc987dbd5e20]
link Tickets to Zahlungen--><path codeLine="64" d="M389.03,372.9006 C399.19,388.1806 409.68,403.9506 419.55,418.7806 " fill="none" id="Tickets-Zahlungen" style="stroke:#A80036;stroke-width:1.0;"/><line style="stroke:#A80036;stroke-width:1.0;" x1="419.599" x2="429.0256" y1="418.8598" y2="422.1974"/><line style="stroke:#A80036;stroke-width:1.0;" x1="419.599" x2="419.0344" y1="418.8598" y2="428.8439"/><line style="stroke:#A80036;stroke-width:1.0;" x1="419.599" x2="424.03" y1="418.8598" y2="425.5206"/><ellipse cx="416.2757" cy="413.8642" fill="none" rx="4" ry="4" style="stroke:#A80036;stroke-width:1.0;"/><line style="stroke:#A80036;stroke-width:1.0;" x1="383.2751" x2="389.9359" y1="371.4665" y2="367.0355"/><line style="stroke:#A80036;stroke-width:1.0;" x1="384.9367" x2="391.5975" y1="373.9643" y2="369.5333"/><line style="stroke:#A80036;stroke-width:1.0;" x1="388.821" x2="384.39" y1="372.5814" y2="365.9206"/><!--MD5=[795d4cb36520ac15d0ea9bbfdf579c2e]
link Tickets to EinAusfahrten--><path codeLine="65" d="M303.39,373.8306 C298.56,388.4606 293.59,403.5106 288.9,417.7206 " fill="none" id="Tickets-EinAusfahrten" style="stroke:#A80036;stroke-width:1.0;"/><line style="stroke:#A80036;stroke-width:1.0;" x1="288.8298" x2="292.0296" y1="417.9212" y2="427.3955"/><line style="stroke:#A80036;stroke-width:1.0;" x1="288.8298" x2="280.6304" y1="417.9212" y2="423.6458"/><line style="stroke:#A80036;stroke-width:1.0;" x1="288.8298" x2="286.33" y1="417.9212" y2="425.5206"/><ellipse cx="290.7047" cy="412.2217" fill="none" rx="4" ry="4" style="stroke:#A80036;stroke-width:1.0;"/><line style="stroke:#A80036;stroke-width:1.0;" x1="300.9461" x2="308.5412" y1="368.4619" y2="370.9745"/><line style="stroke:#A80036;stroke-width:1.0;" x1="300.0038" x2="307.599" y1="371.31" y2="373.8227"/><line style="stroke:#A80036;stroke-width:1.0;" x1="303.4873" x2="306" y1="373.5158" y2="365.9206"/><!--MD5=[b28d3c338fe6d0ff475e8e8c83349e35]
@startuml Relationales_Datenmodell

title Relationales Datenmodell - Parkhausverwaltung

class Parkhaeuser {
  +id : INT
  name : VARCHAR
  anzahl_ebenen : INT
  parkplaetze_pro_ebene : INT
  preis_pro_stunde : DECIMAL
}

class Parkplaetze {
  +id : INT
  parkhaus_id : INT
  ebene : INT
  parkplatz_nummer : INT
  status : VARCHAR
}

class Fahrzeuge {
  +id : INT
  kennzeichen : VARCHAR
  marke : VARCHAR
  modell : VARCHAR
  farbe : VARCHAR
}

class Tickets {
  +id : INT
  fahrzeug_id : INT
  parkhaus_id : INT
  ticket_typ : VARCHAR
  einfahrts_zeit : DATETIME
  ausfahrts_zeit : DATETIME
  gezahlter_betrag : DECIMAL
  status : VARCHAR
}

class Zahlungen {
  +id : INT
  ticket_id : INT
  zahlungsart : VARCHAR
  betrag : DECIMAL
  zahlungs_zeit : DATETIME
  status : VARCHAR
}

class EinAusfahrten {
  +id : INT
  parkhaus_id : INT
  fahrzeug_id : INT
  richtung : VARCHAR
  zeitpunkt : DATETIME
  schranke_geoeffnet : BOOLEAN
}

Parkhaeuser ||- -o{ Parkplaetze
Parkhaeuser ||- -o{ Tickets
Parkhaeuser ||- -o{ EinAusfahrten

Fahrzeuge ||- -o{ Tickets
Fahrzeuge ||- -o{ EinAusfahrten

Tickets ||- -o{ Zahlungen
Tickets ||- -o{ EinAusfahrten

@enduml

PlantUML version 1.2021.00(Sun Jan 10 11:25:05 CET 2021)
(MIT source distribution)
Java Runtime: Java(TM) SE Runtime Environment
JVM: Java HotSpot(TM) 64-Bit Server VM
Default Encoding: Cp1252
Language: de
Country: DE
--></g></svg>