<?xml version="1.0" encoding="UTF-8" standalone="no"?><svg xmlns="http://www.w3.org/2000/svg" xmlns:xlink="http://www.w3.org/1999/xlink" contentScriptType="application/ecmascript" contentStyleType="text/css" height="326px" preserveAspectRatio="none" style="width:409px;height:326px;" version="1.1" viewBox="0 0 409 326" width="409px" zoomAndPan="magnify"><defs><filter height="300%" id="fska3hecj74fr" width="300%" x="-1" y="-1"><feGaussianBlur result="blurOut" stdDeviation="2.0"/><feColorMatrix in="blurOut" result="blurOut2" type="matrix" values="0 0 0 0 0 0 0 0 0 0 0 0 0 0 0 0 0 0 .4 0"/><feOffset dx="4.0" dy="4.0" in="blurOut2" result="blurOut3"/><feBlend in="SourceGraphic" in2="blurOut3" mode="normal"/></filter></defs><g><text fill="#000000" font-family="sans-serif" font-size="18" lengthAdjust="spacing" textLength="344" x="26.1476" y="18.6855">Use Case Diagramm - Parkhausverwaltung</text><!--MD5=[20e8a0d1c10cbe4476c06f9d600054d8]
entity driver--><ellipse cx="178.5" cy="36.6406" fill="#FEFECE" filter="url(#fska3hecj74fr)" rx="8" ry="8" style="stroke:#A80036;stroke-width:1.5;"/><path d="M178.5,44.6406 L178.5,71.6406 M165.5,52.6406 L191.5,52.6406 M178.5,71.6406 L165.5,86.6406 M178.5,71.6406 L191.5,86.6406 " fill="none" filter="url(#fska3hecj74fr)" style="stroke:#A80036;stroke-width:1.5;"/><text fill="#000000" font-family="sans-serif" font-size="14" lengthAdjust="spacing" textLength="38" x="159.5" y="106.6738">Driver</text><!--MD5=[2b2d5ad518bf6746de4ffeb5be0566d4]
entity manager--><ellipse cx="324.5" cy="36.6406" fill="#FEFECE" filter="url(#fska3hecj74fr)" rx="8" ry="8" style="stroke:#A80036;stroke-width:1.5;"/><path d="M324.5,44.6406 L324.5,71.6406 M311.5,52.6406 L337.5,52.6406 M324.5,71.6406 L311.5,86.6406 M324.5,71.6406 L337.5,86.6406 " fill="none" filter="url(#fska3hecj74fr)" style="stroke:#A80036;stroke-width:1.5;"/><text fill="#000000" font-family="sans-serif" font-size="14" lengthAdjust="spacing" textLength="56" x="296.5" y="106.6738">Manager</text><ellipse cx="324.6476" cy="188.0701" fill="#FEFECE" filter="url(#fska3hecj74fr)" rx="72.6476" ry="16.9295" style="stroke:#A80036;stroke-width:1.5;"/><text fill="#000000" font-family="sans-serif" font-size="14" lengthAdjust="spacing" textLength="95" x="274.1476" y="192.5867">Create Parking</text><ellipse cx="75.457" cy="187.932" fill="#FEFECE" filter="url(#fska3hecj74fr)" rx="69.457" ry="16.2914" style="stroke:#A80036;stroke-width:1.5;"/><text fill="#000000" font-family="sans-serif" font-size="14" lengthAdjust="spacing" textLength="86" x="29.457" y="192.4486">Enter Parking</text><ellipse cx="137.602" cy="298.7543" fill="#FEFECE" filter="url(#fska3hecj74fr)" rx="64.602" ry="15.6136" style="stroke:#A80036;stroke-width:1.5;"/><text fill="#000000" font-family="sans-serif" font-size="14" lengthAdjust="spacing" textLength="74" x="97.602" y="303.2709">Exit Parking</text><!--MD5=[6aec9684e69a65cf782b32abfa8e730a]
link driver to UC2--><path d="M159.37,91.4706 C140.09,113.4606 110.63,147.0606 92.25,168.0306 " fill="none" id="driver-to-UC2" style="stroke:#A80036;stroke-width:1.0;"/><polygon fill="#A80036" points="88.95,171.7906,97.8946,167.6683,92.2496,168.0339,91.8839,162.3889,88.95,171.7906" style="stroke:#A80036;stroke-width:1.0;"/><!--MD5=[0cd44dfc6939d23296aa5e3c93158329]
link driver to UC3--><path d="M185.9,110.1506 C191.09,148.3606 194.31,206.5706 176.5,253.1406 C172.72,263.0206 165.68,272.1506 158.6,279.5306 " fill="none" id="driver-to-UC3" style="stroke:#A80036;stroke-width:1.0;"/><polygon fill="#A80036" points="154.69,283.4506,163.8895,279.9337,158.2327,279.9222,158.2441,274.2654,154.69,283.4506" style="stroke:#A80036;stroke-width:1.0;"/><!--MD5=[02cb646c1cfd92f31b307006238a5273]
link manager to UC1--><path d="M324.5,110.4106 C324.5,128.9406 324.5,150.1206 324.5,165.5306 " fill="none" id="manager-to-UC1" style="stroke:#A80036;stroke-width:1.0;"/><polygon fill="#A80036" points="324.5,170.9306,328.5,161.9306,324.5,165.9306,320.5,161.9306,324.5,170.9306" style="stroke:#A80036;stroke-width:1.0;"/><!--MD5=[594891eb4838d876d29f7ff5a36f2080]
link UC2 to UC3--><path d="M84.38,204.6906 C95.53,224.1906 114.63,257.6106 126.63,278.6206 " fill="none" id="UC2-to-UC3" style="stroke:#A80036;stroke-width:1.0;"/><polygon fill="#A80036" points="129.23,283.1606,128.2308,273.3626,126.7462,278.8212,121.2877,277.3366,129.23,283.1606" style="stroke:#A80036;stroke-width:1.0;"/><text fill="#000000" font-family="sans-serif" font-size="13" lengthAdjust="spacing" textLength="55" x="113.5" y="249.6357">«include»</text><!--MD5=[aa5493b3c371485143eae9e51ee3a7e4]
@startuml USE_CASE_Diagramm
title Use Case Diagramm - Parkhausverwaltung

actor "Driver" as driver
actor "Manager" as manager

usecase "Create Parking" as UC1
usecase "Enter Parking" as UC2
usecase "Exit Parking" as UC3

driver - -> UC2
driver - -> UC3
manager - -> UC1

UC2 - -> UC3 : <<include>>

@enduml

PlantUML version 1.2021.00(Sun Jan 10 11:25:05 CET 2021)
(MIT source distribution)
Java Runtime: Java(TM) SE Runtime Environment
JVM: Java HotSpot(TM) 64-Bit Server VM
Default Encoding: Cp1252
Language: de
Country: DE
--></g></svg>