<?xml version="1.0" encoding="UTF-8" standalone="no"?><svg xmlns="http://www.w3.org/2000/svg" xmlns:xlink="http://www.w3.org/1999/xlink" contentScriptType="application/ecmascript" contentStyleType="text/css" height="735px" preserveAspectRatio="none" style="width:597px;height:735px;" version="1.1" viewBox="0 0 597 735" width="597px" zoomAndPan="magnify"><defs><filter height="300%" id="f4ubzizpuwtla" width="300%" x="-1" y="-1"><feGaussianBlur result="blurOut" stdDeviation="2.0"/><feColorMatrix in="blurOut" result="blurOut2" type="matrix" values="0 0 0 0 0 0 0 0 0 0 0 0 0 0 0 0 0 0 .4 0"/><feOffset dx="4.0" dy="4.0" in="blurOut2" result="blurOut3"/><feBlend in="SourceGraphic" in2="blurOut3" mode="normal"/></filter></defs><g><text fill="#000000" font-family="sans-serif" font-size="18" lengthAdjust="spacing" textLength="294" x="150.5" y="28.6855">Aktivitaetsdiagramm - Bezahlvorgang</text><ellipse cx="348.75" cy="42.6406" fill="#000000" filter="url(#f4ubzizpuwtla)" rx="10" ry="10" style="stroke:none;stroke-width:1.0;"/><rect fill="#FEFECE" filter="url(#f4ubzizpuwtla)" height="35.0938" rx="12.5" ry="12.5" style="stroke:#A80036;stroke-width:1.5;" width="280" x="208.75" y="72.6406"/><text fill="#000000" font-family="sans-serif" font-size="12" lengthAdjust="spacing" textLength="260" x="218.75" y="95.0977">Autofahrer naehert sich dem Kassenautomaten</text><rect fill="#FEFECE" filter="url(#f4ubzizpuwtla)" height="35.0938" rx="12.5" ry="12.5" style="stroke:#A80036;stroke-width:1.5;" width="213" x="242.25" y="127.7344"/><text fill="#000000" font-family="sans-serif" font-size="12" lengthAdjust="spacing" textLength="193" x="252.25" y="150.1914">Ticket in den Automaten einfuehren</text><polygon fill="#FEFECE" filter="url(#f4ubzizpuwtla)" points="297.25,182.8281,400.25,182.8281,412.25,194.8281,400.25,206.8281,297.25,206.8281,285.25,194.8281,297.25,182.8281" style="stroke:#A80036;stroke-width:1.5;"/><text fill="#000000" font-family="sans-serif" font-size="11" lengthAdjust="spacing" textLength="103" x="297.25" y="199.3291">Ist das Ticket gueltig?</text><text fill="#000000" font-family="sans-serif" font-size="11" lengthAdjust="spacing" textLength="8" x="277.25" y="192.4111">ja</text><text fill="#000000" font-family="sans-serif" font-size="11" lengthAdjust="spacing" textLength="20" x="412.25" y="192.4111">nein</text><rect fill="#FEFECE" filter="url(#f4ubzizpuwtla)" height="35.0938" rx="12.5" ry="12.5" style="stroke:#A80036;stroke-width:1.5;" width="207" x="92.5" y="216.8281"/><text fill="#000000" font-family="sans-serif" font-size="12" lengthAdjust="spacing" textLength="187" x="102.5" y="239.2852">System berechnet Parkgebuehren</text><rect fill="#FEFECE" filter="url(#f4ubzizpuwtla)" height="35.0938" rx="12.5" ry="12.5" style="stroke:#A80036;stroke-width:1.5;" width="173" x="109.5" y="271.9219"/><text fill="#000000" font-family="sans-serif" font-size="12" lengthAdjust="spacing" textLength="153" x="119.5" y="294.3789">Betrag auf Display anzeigen</text><polygon fill="#FEFECE" filter="url(#f4ubzizpuwtla)" points="144.5,327.0156,247.5,327.0156,259.5,339.0156,247.5,351.0156,144.5,351.0156,132.5,339.0156,144.5,327.0156" style="stroke:#A80036;stroke-width:1.5;"/><text fill="#000000" font-family="sans-serif" font-size="11" lengthAdjust="spacing" textLength="103" x="144.5" y="343.5166">Welche Zahlungsart?</text><text fill="#000000" font-family="sans-serif" font-size="11" lengthAdjust="spacing" textLength="17" x="115.5" y="336.5986">Bar</text><text fill="#000000" font-family="sans-serif" font-size="11" lengthAdjust="spacing" textLength="52" x="259.5" y="336.5986">Kreditkarte</text><rect fill="#FEFECE" filter="url(#f4ubzizpuwtla)" height="35.0938" rx="12.5" ry="12.5" style="stroke:#A80036;stroke-width:1.5;" width="169" x="11" y="361.0156"/><text fill="#000000" font-family="sans-serif" font-size="12" lengthAdjust="spacing" textLength="149" x="21" y="383.4727">Automat fordert Bargeld ein</text><rect fill="#FEFECE" filter="url(#f4ubzizpuwtla)" height="35.0938" rx="12.5" ry="12.5" style="stroke:#A80036;stroke-width:1.5;" width="150" x="20.5" y="416.1094"/><text fill="#000000" font-family="sans-serif" font-size="12" lengthAdjust="spacing" textLength="130" x="30.5" y="438.5664">Autofahrer wirft Geld ein</text><rect fill="#FEFECE" filter="url(#f4ubzizpuwtla)" height="35.0938" rx="12.5" ry="12.5" style="stroke:#A80036;stroke-width:1.5;" width="113" x="39" y="471.2031"/><text fill="#000000" font-family="sans-serif" font-size="12" lengthAdjust="spacing" textLength="93" x="49" y="493.6602">Quittung drucken</text><rect fill="#FEFECE" filter="url(#f4ubzizpuwtla)" height="35.0938" rx="12.5" ry="12.5" style="stroke:#A80036;stroke-width:1.5;" width="185" x="204" y="361.0156"/><text fill="#000000" font-family="sans-serif" font-size="12" lengthAdjust="spacing" textLength="165" x="214" y="383.4727">Automat fordert Kreditkarte ein</text><rect fill="#FEFECE" filter="url(#f4ubzizpuwtla)" height="35.0938" rx="12.5" ry="12.5" style="stroke:#A80036;stroke-width:1.5;" width="193" x="200" y="416.1094"/><text fill="#000000" font-family="sans-serif" font-size="12" lengthAdjust="spacing" textLength="173" x="210" y="438.5664">Autofahrer steckt Kreditkarte ein</text><rect fill="#FEFECE" filter="url(#f4ubzizpuwtla)" height="35.0938" rx="12.5" ry="12.5" style="stroke:#A80036;stroke-width:1.5;" width="113" x="240" y="471.2031"/><text fill="#000000" font-family="sans-serif" font-size="12" lengthAdjust="spacing" textLength="93" x="250" y="493.6602">Quittung drucken</text><polygon fill="#FEFECE" filter="url(#f4ubzizpuwtla)" points="196,512.2969,208,524.2969,196,536.2969,184,524.2969,196,512.2969" style="stroke:#A80036;stroke-width:1.5;"/><rect fill="#FEFECE" filter="url(#f4ubzizpuwtla)" height="35.0938" rx="12.5" ry="12.5" style="stroke:#A80036;stroke-width:1.5;" width="107" x="142.5" y="556.2969"/><text fill="#000000" font-family="sans-serif" font-size="12" lengthAdjust="spacing" textLength="87" x="152.5" y="578.7539">Ticket freigeben</text><rect fill="#FEFECE" filter="url(#f4ubzizpuwtla)" height="35.0938" rx="12.5" ry="12.5" style="stroke:#A80036;stroke-width:1.5;" width="116" x="138" y="611.3906"/><text fill="#000000" font-family="sans-serif" font-size="12" lengthAdjust="spacing" textLength="96" x="148" y="633.8477">Schranke oeffnen</text><rect fill="#FEFECE" filter="url(#f4ubzizpuwtla)" height="35.0938" rx="12.5" ry="12.5" style="stroke:#A80036;stroke-width:1.5;" width="157" x="423" y="216.8281"/><text fill="#000000" font-family="sans-serif" font-size="12" lengthAdjust="spacing" textLength="137" x="433" y="239.2852">Fehlermeldung anzeigen</text><polygon fill="#FEFECE" filter="url(#f4ubzizpuwtla)" points="348.75,652.4844,360.75,664.4844,348.75,676.4844,336.75,664.4844,348.75,652.4844" style="stroke:#A80036;stroke-width:1.5;"/><ellipse cx="348.75" cy="707.4844" fill="#FFFFFF" filter="url(#f4ubzizpuwtla)" rx="11" ry="11" style="stroke:#000000;stroke-width:1.0;"/><ellipse cx="348.75" cy="707.4844" fill="#000000" rx="6" ry="6" style="stroke:#7F7F7F;stroke-width:1.0;"/><line style="stroke:#A80036;stroke-width:1.5;" x1="348.75" x2="348.75" y1="52.6406" y2="72.6406"/><polygon fill="#A80036" points="344.75,62.6406,348.75,72.6406,352.75,62.6406,348.75,66.6406" style="stroke:#A80036;stroke-width:1.0;"/><line style="stroke:#A80036;stroke-width:1.5;" x1="348.75" x2="348.75" y1="107.7344" y2="127.7344"/><polygon fill="#A80036" points="344.75,117.7344,348.75,127.7344,352.75,117.7344,348.75,121.7344" style="stroke:#A80036;stroke-width:1.0;"/><line style="stroke:#A80036;stroke-width:1.5;" x1="196" x2="196" y1="251.9219" y2="271.9219"/><polygon fill="#A80036" points="192,261.9219,196,271.9219,200,261.9219,196,265.9219" style="stroke:#A80036;stroke-width:1.0;"/><line style="stroke:#A80036;stroke-width:1.5;" x1="95.5" x2="95.5" y1="396.1094" y2="416.1094"/><polygon fill="#A80036" points="91.5,406.1094,95.5,416.1094,99.5,406.1094,95.5,410.1094" style="stroke:#A80036;stroke-width:1.0;"/><line style="stroke:#A80036;stroke-width:1.5;" x1="95.5" x2="95.5" y1="451.2031" y2="471.2031"/><polygon fill="#A80036" points="91.5,461.2031,95.5,471.2031,99.5,461.2031,95.5,465.2031" style="stroke:#A80036;stroke-width:1.0;"/><line style="stroke:#A80036;stroke-width:1.5;" x1="296.5" x2="296.5" y1="396.1094" y2="416.1094"/><polygon fill="#A80036" points="292.5,406.1094,296.5,416.1094,300.5,406.1094,296.5,410.1094" style="stroke:#A80036;stroke-width:1.0;"/><line style="stroke:#A80036;stroke-width:1.5;" x1="296.5" x2="296.5" y1="451.2031" y2="471.2031"/><polygon fill="#A80036" points="292.5,461.2031,296.5,471.2031,300.5,461.2031,296.5,465.2031" style="stroke:#A80036;stroke-width:1.0;"/><line style="stroke:#A80036;stroke-width:1.5;" x1="132.5" x2="95.5" y1="339.0156" y2="339.0156"/><line style="stroke:#A80036;stroke-width:1.5;" x1="95.5" x2="95.5" y1="339.0156" y2="361.0156"/><polygon fill="#A80036" points="91.5,351.0156,95.5,361.0156,99.5,351.0156,95.5,355.0156" style="stroke:#A80036;stroke-width:1.0;"/><line style="stroke:#A80036;stroke-width:1.5;" x1="259.5" x2="296.5" y1="339.0156" y2="339.0156"/><line style="stroke:#A80036;stroke-width:1.5;" x1="296.5" x2="296.5" y1="339.0156" y2="361.0156"/><polygon fill="#A80036" points="292.5,351.0156,296.5,361.0156,300.5,351.0156,296.5,355.0156" style="stroke:#A80036;stroke-width:1.0;"/><line style="stroke:#A80036;stroke-width:1.5;" x1="95.5" x2="95.5" y1="506.2969" y2="524.2969"/><line style="stroke:#A80036;stroke-width:1.5;" x1="95.5" x2="184" y1="524.2969" y2="524.2969"/><polygon fill="#A80036" points="174,520.2969,184,524.2969,174,528.2969,178,524.2969" style="stroke:#A80036;stroke-width:1.0;"/><line style="stroke:#A80036;stroke-width:1.5;" x1="296.5" x2="296.5" y1="506.2969" y2="524.2969"/><line style="stroke:#A80036;stroke-width:1.5;" x1="296.5" x2="208" y1="524.2969" y2="524.2969"/><polygon fill="#A80036" points="218,520.2969,208,524.2969,218,528.2969,214,524.2969" style="stroke:#A80036;stroke-width:1.0;"/><line style="stroke:#A80036;stroke-width:1.5;" x1="196" x2="196" y1="307.0156" y2="327.0156"/><polygon fill="#A80036" points="192,317.0156,196,327.0156,200,317.0156,196,321.0156" style="stroke:#A80036;stroke-width:1.0;"/><line style="stroke:#A80036;stroke-width:1.5;" x1="196" x2="196" y1="536.2969" y2="556.2969"/><polygon fill="#A80036" points="192,546.2969,196,556.2969,200,546.2969,196,550.2969" style="stroke:#A80036;stroke-width:1.0;"/><line style="stroke:#A80036;stroke-width:1.5;" x1="196" x2="196" y1="591.3906" y2="611.3906"/><polygon fill="#A80036" points="192,601.3906,196,611.3906,200,601.3906,196,605.3906" style="stroke:#A80036;stroke-width:1.0;"/><line style="stroke:#A80036;stroke-width:1.5;" x1="285.25" x2="196" y1="194.8281" y2="194.8281"/><line style="stroke:#A80036;stroke-width:1.5;" x1="196" x2="196" y1="194.8281" y2="216.8281"/><polygon fill="#A80036" points="192,206.8281,196,216.8281,200,206.8281,196,210.8281" style="stroke:#A80036;stroke-width:1.0;"/><line style="stroke:#A80036;stroke-width:1.5;" x1="412.25" x2="501.5" y1="194.8281" y2="194.8281"/><line style="stroke:#A80036;stroke-width:1.5;" x1="501.5" x2="501.5" y1="194.8281" y2="216.8281"/><polygon fill="#A80036" points="497.5,206.8281,501.5,216.8281,505.5,206.8281,501.5,210.8281" style="stroke:#A80036;stroke-width:1.0;"/><line style="stroke:#A80036;stroke-width:1.5;" x1="196" x2="196" y1="646.4844" y2="664.4844"/><line style="stroke:#A80036;stroke-width:1.5;" x1="196" x2="336.75" y1="664.4844" y2="664.4844"/><polygon fill="#A80036" points="326.75,660.4844,336.75,664.4844,326.75,668.4844,330.75,664.4844" style="stroke:#A80036;stroke-width:1.0;"/><line style="stroke:#A80036;stroke-width:1.5;" x1="501.5" x2="501.5" y1="251.9219" y2="664.4844"/><line style="stroke:#A80036;stroke-width:1.5;" x1="501.5" x2="360.75" y1="664.4844" y2="664.4844"/><polygon fill="#A80036" points="370.75,660.4844,360.75,664.4844,370.75,668.4844,366.75,664.4844" style="stroke:#A80036;stroke-width:1.0;"/><line style="stroke:#A80036;stroke-width:1.5;" x1="348.75" x2="348.75" y1="162.8281" y2="182.8281"/><polygon fill="#A80036" points="344.75,172.8281,348.75,182.8281,352.75,172.8281,348.75,176.8281" style="stroke:#A80036;stroke-width:1.0;"/><line style="stroke:#A80036;stroke-width:1.5;" x1="348.75" x2="348.75" y1="676.4844" y2="696.4844"/><polygon fill="#A80036" points="344.75,686.4844,348.75,696.4844,352.75,686.4844,348.75,690.4844" style="stroke:#A80036;stroke-width:1.0;"/><!--MD5=[55e196fe6f2ee1dd894d040b00ef5dd2]
@startuml Aktivitaetendiagramm_Bezahlvorgang
title Aktivitaetsdiagramm - Bezahlvorgang

start

:Autofahrer naehert sich dem Kassenautomaten;

:Ticket in den Automaten einfuehren;

if (Ist das Ticket gueltig?) then (ja)
    :System berechnet Parkgebuehren;
    :Betrag auf Display anzeigen;

    if (Welche Zahlungsart?) then (Bar)
        :Automat fordert Bargeld ein;
        :Autofahrer wirft Geld ein;
        :Quittung drucken;
    else (Kreditkarte)
        :Automat fordert Kreditkarte ein;
        :Autofahrer steckt Kreditkarte ein;
        :Quittung drucken;
    endif

    :Ticket freigeben;
    :Schranke oeffnen;

else (nein)
    :Fehlermeldung anzeigen;
endif

stop

@enduml

PlantUML version 1.2021.00(Sun Jan 10 11:25:05 CET 2021)
(MIT source distribution)
Java Runtime: Java(TM) SE Runtime Environment
JVM: Java HotSpot(TM) 64-Bit Server VM
Default Encoding: Cp1252
Language: de
Country: DE
--></g></svg>