<?xml version="1.0" encoding="UTF-8" standalone="no"?><svg xmlns="http://www.w3.org/2000/svg" xmlns:xlink="http://www.w3.org/1999/xlink" contentScriptType="application/ecmascript" contentStyleType="text/css" height="321px" preserveAspectRatio="none" style="width:916px;height:321px;" version="1.1" viewBox="0 0 916 321" width="916px" zoomAndPan="magnify"><defs><filter height="300%" id="f1h6r12ncwsxi9" width="300%" x="-1" y="-1"><feGaussianBlur result="blurOut" stdDeviation="2.0"/><feColorMatrix in="blurOut" result="blurOut2" type="matrix" values="0 0 0 0 0 0 0 0 0 0 0 0 0 0 0 0 0 0 .4 0"/><feOffset dx="4.0" dy="4.0" in="blurOut2" result="blurOut3"/><feBlend in="SourceGraphic" in2="blurOut3" mode="normal"/></filter></defs><g><text fill="#000000" font-family="sans-serif" font-size="18" lengthAdjust="spacing" textLength="353" x="274" y="18.6855">Entscheidungstabelle - Schrankensteuerung</text><path d="M43.5,28.6406 L43.5,54.9922 L185.5,54.9922 L185.5,38.6406 L175.5,28.6406 L43.5,28.6406 " fill="#FBFB77" filter="url(#f1h6r12ncwsxi9)" style="stroke:#A80036;stroke-width:1.0;"/><path d="M175.5,28.6406 L175.5,38.6406 L185.5,38.6406 L175.5,28.6406 " fill="#FBFB77" style="stroke:#A80036;stroke-width:1.0;"/><text fill="#000000" font-family="sans-serif" font-size="13" lengthAdjust="spacing" textLength="121" x="49.5" y="47.1357">C1: Ticket vorhanden</text><path d="M220.5,28.6406 L220.5,54.9922 L346.5,54.9922 L346.5,38.6406 L336.5,28.6406 L220.5,28.6406 " fill="#FBFB77" filter="url(#f1h6r12ncwsxi9)" style="stroke:#A80036;stroke-width:1.0;"/><path d="M336.5,28.6406 L336.5,38.6406 L346.5,38.6406 L336.5,28.6406 " fill="#FBFB77" style="stroke:#A80036;stroke-width:1.0;"/><text fill="#000000" font-family="sans-serif" font-size="13" lengthAdjust="spacing" textLength="105" x="226.5" y="47.1357">C2: Ticket bezahlt</text><path d="M381.5,28.6406 L381.5,54.9922 L503.5,54.9922 L503.5,38.6406 L493.5,28.6406 L381.5,28.6406 " fill="#FBFB77" filter="url(#f1h6r12ncwsxi9)" style="stroke:#A80036;stroke-width:1.0;"/><path d="M493.5,28.6406 L493.5,38.6406 L503.5,38.6406 L493.5,28.6406 " fill="#FBFB77" style="stroke:#A80036;stroke-width:1.0;"/><text fill="#000000" font-family="sans-serif" font-size="13" lengthAdjust="spacing" textLength="101" x="387.5" y="47.1357">C3: Ticket gueltig</text><path d="M538.5,28.6406 L538.5,54.9922 L684.5,54.9922 L684.5,38.6406 L674.5,28.6406 L538.5,28.6406 " fill="#FBFB77" filter="url(#f1h6r12ncwsxi9)" style="stroke:#A80036;stroke-width:1.0;"/><path d="M674.5,28.6406 L674.5,38.6406 L684.5,38.6406 L674.5,28.6406 " fill="#FBFB77" style="stroke:#A80036;stroke-width:1.0;"/><text fill="#000000" font-family="sans-serif" font-size="13" lengthAdjust="spacing" textLength="125" x="544.5" y="47.1357">C4: Fahrzeug erkannt</text><path d="M6,114.6406 L6,140.9922 L223,140.9922 L223,124.6406 L213,114.6406 L6,114.6406 " fill="#FBFB77" filter="url(#f1h6r12ncwsxi9)" style="stroke:#A80036;stroke-width:1.0;"/><path d="M213,114.6406 L213,124.6406 L223,124.6406 L213,114.6406 " fill="#FBFB77" style="stroke:#A80036;stroke-width:1.0;"/><text fill="#000000" font-family="sans-serif" font-size="13" lengthAdjust="spacing" textLength="196" x="12" y="133.1357">C5: Kennzeichen stimmt ueberein</text><path d="M258.5,114.6406 L258.5,140.9922 L428.5,140.9922 L428.5,124.6406 L418.5,114.6406 L258.5,114.6406 " fill="#FBFB77" filter="url(#f1h6r12ncwsxi9)" style="stroke:#A80036;stroke-width:1.0;"/><path d="M418.5,114.6406 L418.5,124.6406 L428.5,124.6406 L418.5,114.6406 " fill="#FBFB77" style="stroke:#A80036;stroke-width:1.0;"/><text fill="#000000" font-family="sans-serif" font-size="13" lengthAdjust="spacing" textLength="149" x="264.5" y="133.1357">C6: Parkplatz freigegeben</text><path d="M464,114.6406 L464,140.9922 L617,140.9922 L617,124.6406 L607,114.6406 L464,114.6406 " fill="#FBFB77" filter="url(#f1h6r12ncwsxi9)" style="stroke:#A80036;stroke-width:1.0;"/><path d="M607,114.6406 L607,124.6406 L617,124.6406 L607,114.6406 " fill="#FBFB77" style="stroke:#A80036;stroke-width:1.0;"/><text fill="#000000" font-family="sans-serif" font-size="13" lengthAdjust="spacing" textLength="132" x="470" y="133.1357">C7: Zahlung erfolgreich</text><path d="M652.5,114.6406 L652.5,140.9922 L832.5,140.9922 L832.5,124.6406 L822.5,114.6406 L652.5,114.6406 " fill="#FBFB77" filter="url(#f1h6r12ncwsxi9)" style="stroke:#A80036;stroke-width:1.0;"/><path d="M822.5,114.6406 L822.5,124.6406 L832.5,124.6406 L822.5,114.6406 " fill="#FBFB77" style="stroke:#A80036;stroke-width:1.0;"/><text fill="#000000" font-family="sans-serif" font-size="13" lengthAdjust="spacing" textLength="159" x="658.5" y="133.1357">C8: System funktionsfaehig</text><path d="M42,200.6406 L42,226.9922 L187,226.9922 L187,210.6406 L177,200.6406 L42,200.6406 " fill="#FBFB77" filter="url(#f1h6r12ncwsxi9)" style="stroke:#A80036;stroke-width:1.0;"/><path d="M177,200.6406 L177,210.6406 L187,210.6406 L177,200.6406 " fill="#FBFB77" style="stroke:#A80036;stroke-width:1.0;"/><text fill="#000000" font-family="sans-serif" font-size="13" lengthAdjust="spacing" textLength="124" x="48" y="219.1357">A1: Schranke oeffnen</text><path d="M222.5,200.6406 L222.5,226.9922 L438.5,226.9922 L438.5,210.6406 L428.5,200.6406 L222.5,200.6406 " fill="#FBFB77" filter="url(#f1h6r12ncwsxi9)" style="stroke:#A80036;stroke-width:1.0;"/><path d="M428.5,200.6406 L428.5,210.6406 L438.5,210.6406 L428.5,200.6406 " fill="#FBFB77" style="stroke:#A80036;stroke-width:1.0;"/><text fill="#000000" font-family="sans-serif" font-size="13" lengthAdjust="spacing" textLength="195" x="228.5" y="219.1357">A2: Schranke geschlossen halten</text><path d="M474,200.6406 L474,226.9922 L627,226.9922 L627,210.6406 L617,200.6406 L474,200.6406 " fill="#FBFB77" filter="url(#f1h6r12ncwsxi9)" style="stroke:#A80036;stroke-width:1.0;"/><path d="M617,200.6406 L617,210.6406 L627,210.6406 L617,200.6406 " fill="#FBFB77" style="stroke:#A80036;stroke-width:1.0;"/><text fill="#000000" font-family="sans-serif" font-size="13" lengthAdjust="spacing" textLength="132" x="480" y="219.1357">A3: Warnung anzeigen</text><path d="M662,200.6406 L662,226.9922 L907,226.9922 L907,210.6406 L897,200.6406 L662,200.6406 " fill="#FBFB77" filter="url(#f1h6r12ncwsxi9)" style="stroke:#A80036;stroke-width:1.0;"/><path d="M897,200.6406 L897,210.6406 L907,210.6406 L897,200.6406 " fill="#FBFB77" style="stroke:#A80036;stroke-width:1.0;"/><text fill="#000000" font-family="sans-serif" font-size="13" lengthAdjust="spacing" textLength="224" x="668" y="219.1357">A4: Parkhausverwalter benachrichtigen</text><path d="M39.5,286.6406 L39.5,312.9922 L189.5,312.9922 L189.5,296.6406 L179.5,286.6406 L39.5,286.6406 " fill="#FBFB77" filter="url(#f1h6r12ncwsxi9)" style="stroke:#A80036;stroke-width:1.0;"/><path d="M179.5,286.6406 L179.5,296.6406 L189.5,296.6406 L179.5,286.6406 " fill="#FBFB77" style="stroke:#A80036;stroke-width:1.0;"/><text fill="#000000" font-family="sans-serif" font-size="13" lengthAdjust="spacing" textLength="129" x="45.5" y="305.1357">A5: Ticket einbehalten</text><path d="M224.5,286.6406 L224.5,312.9922 L410.5,312.9922 L410.5,296.6406 L400.5,286.6406 L224.5,286.6406 " fill="#FBFB77" filter="url(#f1h6r12ncwsxi9)" style="stroke:#A80036;stroke-width:1.0;"/><path d="M400.5,286.6406 L400.5,296.6406 L410.5,296.6406 L400.5,286.6406 " fill="#FBFB77" style="stroke:#A80036;stroke-width:1.0;"/><text fill="#000000" font-family="sans-serif" font-size="13" lengthAdjust="spacing" textLength="165" x="230.5" y="305.1357">A6: Fehlermeldung anzeigen</text><path d="M446,286.6406 L446,312.9922 L627,312.9922 L627,296.6406 L617,286.6406 L446,286.6406 " fill="#FBFB77" filter="url(#f1h6r12ncwsxi9)" style="stroke:#A80036;stroke-width:1.0;"/><path d="M617,286.6406 L617,296.6406 L627,296.6406 L617,286.6406 " fill="#FBFB77" style="stroke:#A80036;stroke-width:1.0;"/><text fill="#000000" font-family="sans-serif" font-size="13" lengthAdjust="spacing" textLength="160" x="452" y="305.1357">A7: Notfall-Button aktivieren</text><!--MD5=[d43813fc1b63bce67197202a4f0eb2ed]
link C1 to C2--><!--MD5=[dc377cb8495f93f8f80b5bc211815c35]
link C2 to C3--><!--MD5=[a198857c7a3cf9810eae959f1952c380]
link C3 to C4--><!--MD5=[3f27cca356cf4b575168906e68dec185]
link C1 to C5--><!--MD5=[882cdfece65b7c32bdac04c9d7a073e3]
link C5 to C6--><!--MD5=[34c1d4b7acc826bd124bad9a0b718410]
link C6 to C7--><!--MD5=[0eb1da3d8fcfd7b04da3326dbc8c7921]
link C7 to C8--><!--MD5=[a470855c99731b39ca81ba42249ce42b]
link C5 to A1--><!--MD5=[caeae694f65dcee578e98ff337972896]
link A1 to A2--><!--MD5=[77ff4c501d98d148735760b3f3e66250]
link A2 to A3--><!--MD5=[a473d6ae95cccb26a2a07e03f542fd59]
link A3 to A4--><!--MD5=[053545df62d3c918599d811ac788124a]
link A1 to A5--><!--MD5=[285f889f4e8fd894ebbbe927f50f9779]
link A5 to A6--><!--MD5=[345715856a3dd94edb8b148d25214139]
link A6 to A7--><!--MD5=[4e03759c12d94b2d1b00a7e20605969c]
@startuml Entscheidungstabelle_Schrankensteuerung

title Entscheidungstabelle - Schrankensteuerung

note as C1
  C1: Ticket vorhanden
end note

note as C2
  C2: Ticket bezahlt
end note

note as C3
  C3: Ticket gueltig
end note

note as C4
  C4: Fahrzeug erkannt
end note

note as C5
  C5: Kennzeichen stimmt ueberein
end note

note as C6
  C6: Parkplatz freigegeben
end note

note as C7
  C7: Zahlung erfolgreich
end note

note as C8
  C8: System funktionsfaehig
end note

note as A1
  A1: Schranke oeffnen
end note

note as A2
  A2: Schranke geschlossen halten
end note

note as A3
  A3: Warnung anzeigen
end note

note as A4
  A4: Parkhausverwalter benachrichtigen
end note

note as A5
  A5: Ticket einbehalten
end note

note as A6
  A6: Fehlermeldung anzeigen
end note

note as A7
  A7: Notfall-Button aktivieren
end note

@enduml

PlantUML version 1.2021.00(Sun Jan 10 11:25:05 CET 2021)
(MIT source distribution)
Java Runtime: Java(TM) SE Runtime Environment
JVM: Java HotSpot(TM) 64-Bit Server VM
Default Encoding: Cp1252
Language: de
Country: DE
--></g></svg>