<?xml version="1.0" encoding="UTF-8" standalone="no"?><svg xmlns="http://www.w3.org/2000/svg" xmlns:xlink="http://www.w3.org/1999/xlink" contentScriptType="application/ecmascript" contentStyleType="text/css" height="735px" preserveAspectRatio="none" style="width:1481px;height:735px;" version="1.1" viewBox="0 0 1481 735" width="1481px" zoomAndPan="magnify"><defs><filter height="300%" id="f1tprrofcdmjsr" width="300%" x="-1" y="-1"><feGaussianBlur result="blurOut" stdDeviation="2.0"/><feColorMatrix in="blurOut" result="blurOut2" type="matrix" values="0 0 0 0 0 0 0 0 0 0 0 0 0 0 0 0 0 0 .4 0"/><feOffset dx="4.0" dy="4.0" in="blurOut2" result="blurOut3"/><feBlend in="SourceGraphic" in2="blurOut3" mode="normal"/></filter></defs><g><text fill="#000000" font-family="sans-serif" font-size="18" lengthAdjust="spacing" textLength="359" x="560.4688" y="28.6855">PAP: Schrankenöffnung mit Zahlungsprüfung</text><ellipse cx="1080.5" cy="42.6406" fill="#000000" filter="url(#f1tprrofcdmjsr)" rx="10" ry="10" style="stroke:none;stroke-width:1.0;"/><rect fill="#FEFECE" filter="url(#f1tprrofcdmjsr)" height="35.0938" rx="12.5" ry="12.5" style="stroke:#A80036;stroke-width:1.5;" width="143" x="1009" y="72.6406"/><text fill="#000000" font-family="sans-serif" font-size="12" lengthAdjust="spacing" textLength="123" x="1019" y="95.0977">Kennzeichen erfassen</text><rect fill="#FEFECE" filter="url(#f1tprrofcdmjsr)" height="35.0938" rx="12.5" ry="12.5" style="stroke:#A80036;stroke-width:1.5;" width="211" x="975" y="127.7344"/><text fill="#000000" font-family="sans-serif" font-size="12" lengthAdjust="spacing" textLength="191" x="985" y="150.1914">Kennzeichen in Datenbank suchen</text><polygon fill="#FEFECE" filter="url(#f1tprrofcdmjsr)" points="1030,182.8281,1131,182.8281,1143,194.8281,1131,206.8281,1030,206.8281,1018,194.8281,1030,182.8281" style="stroke:#A80036;stroke-width:1.5;"/><text fill="#000000" font-family="sans-serif" font-size="11" lengthAdjust="spacing" textLength="101" x="1030" y="199.3291">Fahrzeug gefunden?</text><text fill="#000000" font-family="sans-serif" font-size="11" lengthAdjust="spacing" textLength="8" x="1010" y="192.4111">ja</text><text fill="#000000" font-family="sans-serif" font-size="11" lengthAdjust="spacing" textLength="20" x="1143" y="192.4111">nein</text><rect fill="#FEFECE" filter="url(#f1tprrofcdmjsr)" height="35.0938" rx="12.5" ry="12.5" style="stroke:#A80036;stroke-width:1.5;" width="208" x="700.625" y="216.8281"/><text fill="#000000" font-family="sans-serif" font-size="12" lengthAdjust="spacing" textLength="188" x="710.625" y="239.2852">Aktives Ticket für Fahrzeug suchen</text><polygon fill="#FEFECE" filter="url(#f1tprrofcdmjsr)" points="743.625,271.9219,865.625,271.9219,877.625,283.9219,865.625,295.9219,743.625,295.9219,731.625,283.9219,743.625,271.9219" style="stroke:#A80036;stroke-width:1.5;"/><text fill="#000000" font-family="sans-serif" font-size="11" lengthAdjust="spacing" textLength="122" x="743.625" y="288.4229">Aktives Ticket gefunden?</text><text fill="#000000" font-family="sans-serif" font-size="11" lengthAdjust="spacing" textLength="8" x="723.625" y="281.5049">ja</text><text fill="#000000" font-family="sans-serif" font-size="11" lengthAdjust="spacing" textLength="20" x="877.625" y="281.5049">nein</text><polygon fill="#FEFECE" filter="url(#f1tprrofcdmjsr)" points="446.25,305.9219,551.25,305.9219,563.25,317.9219,551.25,329.9219,446.25,329.9219,434.25,317.9219,446.25,305.9219" style="stroke:#A80036;stroke-width:1.5;"/><text fill="#000000" font-family="sans-serif" font-size="11" lengthAdjust="spacing" textLength="105" x="446.25" y="322.4229">Ticket ist Dauerticket?</text><text fill="#000000" font-family="sans-serif" font-size="11" lengthAdjust="spacing" textLength="8" x="426.25" y="315.5049">ja</text><text fill="#000000" font-family="sans-serif" font-size="11" lengthAdjust="spacing" textLength="95" x="563.25" y="315.5049">nein - Stundenticket</text><polygon fill="#FEFECE" filter="url(#f1tprrofcdmjsr)" points="187.75,339.9219,302.75,339.9219,314.75,351.9219,302.75,363.9219,187.75,363.9219,175.75,351.9219,187.75,339.9219" style="stroke:#A80036;stroke-width:1.5;"/><text fill="#000000" font-family="sans-serif" font-size="11" lengthAdjust="spacing" textLength="115" x="187.75" y="356.4229">Dauerticket noch gültig?</text><text fill="#000000" font-family="sans-serif" font-size="11" lengthAdjust="spacing" textLength="8" x="167.75" y="349.5049">ja</text><text fill="#000000" font-family="sans-serif" font-size="11" lengthAdjust="spacing" textLength="20" x="314.75" y="349.5049">nein</text><rect fill="#FEFECE" filter="url(#f1tprrofcdmjsr)" height="35.0938" rx="12.5" ry="12.5" style="stroke:#A80036;stroke-width:1.5;" width="109" x="66.5" y="373.9219"/><text fill="#000000" font-family="sans-serif" font-size="12" lengthAdjust="spacing" textLength="89" x="76.5" y="396.3789">Schranke öffnen</text><rect fill="#FEFECE" filter="url(#f1tprrofcdmjsr)" height="35.0938" rx="12.5" ry="12.5" style="stroke:#A80036;stroke-width:1.5;" width="170" x="36" y="444.0156"/><text fill="#000000" font-family="sans-serif" font-size="12" lengthAdjust="spacing" textLength="150" x="46" y="466.4727">Ausfahrtsprotokoll erstellen</text><rect fill="#FEFECE" filter="url(#f1tprrofcdmjsr)" height="35.0938" rx="12.5" ry="12.5" style="stroke:#A80036;stroke-width:1.5;" width="220" x="11" y="499.1094"/><text fill="#000000" font-family="sans-serif" font-size="12" lengthAdjust="spacing" textLength="200" x="21" y="521.5664">Ticket als abgeschlossen markieren</text><rect fill="#FEFECE" filter="url(#f1tprrofcdmjsr)" height="35.0938" rx="12.5" ry="12.5" style="stroke:#A80036;stroke-width:1.5;" width="169" x="36.5" y="554.2031"/><text fill="#000000" font-family="sans-serif" font-size="12" lengthAdjust="spacing" textLength="149" x="46.5" y="576.6602">Parkplatz als frei markieren</text><ellipse cx="121" cy="620.2969" fill="#FFFFFF" filter="url(#f1tprrofcdmjsr)" rx="11" ry="11" style="stroke:#000000;stroke-width:1.0;"/><ellipse cx="121" cy="620.2969" fill="#000000" rx="6" ry="6" style="stroke:#7F7F7F;stroke-width:1.0;"/><rect fill="#FEFECE" filter="url(#f1tprrofcdmjsr)" height="35.0938" rx="12.5" ry="12.5" style="stroke:#A80036;stroke-width:1.5;" width="237" x="251" y="373.9219"/><text fill="#000000" font-family="sans-serif" font-size="12" lengthAdjust="spacing" textLength="217" x="261" y="396.3789">Fehlermeldung: Dauerticket abgelaufen</text><ellipse cx="369.5" cy="455.0156" fill="#FFFFFF" filter="url(#f1tprrofcdmjsr)" rx="11" ry="11" style="stroke:#000000;stroke-width:1.0;"/><ellipse cx="369.5" cy="455.0156" fill="#000000" rx="6" ry="6" style="stroke:#7F7F7F;stroke-width:1.0;"/><rect fill="#FEFECE" filter="url(#f1tprrofcdmjsr)" height="35.0938" rx="12.5" ry="12.5" style="stroke:#A80036;stroke-width:1.5;" width="144" x="680.25" y="339.9219"/><text fill="#000000" font-family="sans-serif" font-size="12" lengthAdjust="spacing" textLength="124" x="690.25" y="362.3789">Zahlungsstatus prüfen</text><polygon fill="#FEFECE" filter="url(#f1tprrofcdmjsr)" points="702.25,410.0156,802.25,410.0156,814.25,422.0156,802.25,434.0156,702.25,434.0156,690.25,422.0156,702.25,410.0156" style="stroke:#A80036;stroke-width:1.5;"/><text fill="#000000" font-family="sans-serif" font-size="11" lengthAdjust="spacing" textLength="100" x="702.25" y="426.5166">Zahlung erfolgreich?</text><text fill="#000000" font-family="sans-serif" font-size="11" lengthAdjust="spacing" textLength="8" x="682.25" y="419.5986">ja</text><text fill="#000000" font-family="sans-serif" font-size="11" lengthAdjust="spacing" textLength="20" x="814.25" y="419.5986">nein</text><rect fill="#FEFECE" filter="url(#f1tprrofcdmjsr)" height="35.0938" rx="12.5" ry="12.5" style="stroke:#A80036;stroke-width:1.5;" width="109" x="583.5" y="444.0156"/><text fill="#000000" font-family="sans-serif" font-size="12" lengthAdjust="spacing" textLength="89" x="593.5" y="466.4727">Schranke öffnen</text><rect fill="#FEFECE" filter="url(#f1tprrofcdmjsr)" height="35.0938" rx="12.5" ry="12.5" style="stroke:#A80036;stroke-width:1.5;" width="170" x="553" y="499.1094"/><text fill="#000000" font-family="sans-serif" font-size="12" lengthAdjust="spacing" textLength="150" x="563" y="521.5664">Ausfahrtsprotokoll erstellen</text><rect fill="#FEFECE" filter="url(#f1tprrofcdmjsr)" height="35.0938" rx="12.5" ry="12.5" style="stroke:#A80036;stroke-width:1.5;" width="220" x="528" y="554.2031"/><text fill="#000000" font-family="sans-serif" font-size="12" lengthAdjust="spacing" textLength="200" x="538" y="576.6602">Ticket als abgeschlossen markieren</text><rect fill="#FEFECE" filter="url(#f1tprrofcdmjsr)" height="35.0938" rx="12.5" ry="12.5" style="stroke:#A80036;stroke-width:1.5;" width="169" x="553.5" y="609.2969"/><text fill="#000000" font-family="sans-serif" font-size="12" lengthAdjust="spacing" textLength="149" x="563.5" y="631.7539">Parkplatz als frei markieren</text><ellipse cx="638" cy="675.3906" fill="#FFFFFF" filter="url(#f1tprrofcdmjsr)" rx="11" ry="11" style="stroke:#000000;stroke-width:1.0;"/><ellipse cx="638" cy="675.3906" fill="#000000" rx="6" ry="6" style="stroke:#7F7F7F;stroke-width:1.0;"/><rect fill="#FEFECE" filter="url(#f1tprrofcdmjsr)" height="35.0938" rx="12.5" ry="12.5" style="stroke:#A80036;stroke-width:1.5;" width="197" x="768" y="444.0156"/><text fill="#000000" font-family="sans-serif" font-size="12" lengthAdjust="spacing" textLength="177" x="778" y="466.4727">Fehlermeldung: Bitte erst zahlen</text><ellipse cx="866.5" cy="510.1094" fill="#FFFFFF" filter="url(#f1tprrofcdmjsr)" rx="11" ry="11" style="stroke:#000000;stroke-width:1.0;"/><ellipse cx="866.5" cy="510.1094" fill="#000000" rx="6" ry="6" style="stroke:#7F7F7F;stroke-width:1.0;"/><rect fill="#FEFECE" filter="url(#f1tprrofcdmjsr)" height="35.0938" rx="12.5" ry="12.5" style="stroke:#A80036;stroke-width:1.5;" width="211" x="998.9375" y="305.9219"/><text fill="#000000" font-family="sans-serif" font-size="12" lengthAdjust="spacing" textLength="191" x="1008.9375" y="328.3789">Fehlermeldung: Kein aktives Ticket</text><ellipse cx="1104.4375" cy="387.0156" fill="#FFFFFF" filter="url(#f1tprrofcdmjsr)" rx="11" ry="11" style="stroke:#000000;stroke-width:1.0;"/><ellipse cx="1104.4375" cy="387.0156" fill="#000000" rx="6" ry="6" style="stroke:#7F7F7F;stroke-width:1.0;"/><rect fill="#FEFECE" filter="url(#f1tprrofcdmjsr)" height="35.0938" rx="12.5" ry="12.5" style="stroke:#A80036;stroke-width:1.5;" width="245" x="1219.9375" y="216.8281"/><text fill="#000000" font-family="sans-serif" font-size="12" lengthAdjust="spacing" textLength="225" x="1229.9375" y="239.2852">Fehlermeldung: Fahrzeug nicht gefunden</text><ellipse cx="1342.4375" cy="282.9219" fill="#FFFFFF" filter="url(#f1tprrofcdmjsr)" rx="11" ry="11" style="stroke:#000000;stroke-width:1.0;"/><ellipse cx="1342.4375" cy="282.9219" fill="#000000" rx="6" ry="6" style="stroke:#7F7F7F;stroke-width:1.0;"/><ellipse cx="1080.5" cy="707.3906" fill="#FFFFFF" filter="url(#f1tprrofcdmjsr)" rx="11" ry="11" style="stroke:#000000;stroke-width:1.0;"/><ellipse cx="1080.5" cy="707.3906" fill="#000000" rx="6" ry="6" style="stroke:#7F7F7F;stroke-width:1.0;"/><line style="stroke:#A80036;stroke-width:1.5;" x1="1080.5" x2="1080.5" y1="52.6406" y2="72.6406"/><polygon fill="#A80036" points="1076.5,62.6406,1080.5,72.6406,1084.5,62.6406,1080.5,66.6406" style="stroke:#A80036;stroke-width:1.0;"/><line style="stroke:#A80036;stroke-width:1.5;" x1="1080.5" x2="1080.5" y1="107.7344" y2="127.7344"/><polygon fill="#A80036" points="1076.5,117.7344,1080.5,127.7344,1084.5,117.7344,1080.5,121.7344" style="stroke:#A80036;stroke-width:1.0;"/><line style="stroke:#A80036;stroke-width:1.5;" x1="121" x2="121" y1="409.0156" y2="444.0156"/><polygon fill="#A80036" points="117,434.0156,121,444.0156,125,434.0156,121,438.0156" style="stroke:#A80036;stroke-width:1.0;"/><line style="stroke:#A80036;stroke-width:1.5;" x1="121" x2="121" y1="479.1094" y2="499.1094"/><polygon fill="#A80036" points="117,489.1094,121,499.1094,125,489.1094,121,493.1094" style="stroke:#A80036;stroke-width:1.0;"/><line style="stroke:#A80036;stroke-width:1.5;" x1="121" x2="121" y1="534.2031" y2="554.2031"/><polygon fill="#A80036" points="117,544.2031,121,554.2031,125,544.2031,121,548.2031" style="stroke:#A80036;stroke-width:1.0;"/><line style="stroke:#A80036;stroke-width:1.5;" x1="121" x2="121" y1="589.2969" y2="609.2969"/><polygon fill="#A80036" points="117,599.2969,121,609.2969,125,599.2969,121,603.2969" style="stroke:#A80036;stroke-width:1.0;"/><line style="stroke:#A80036;stroke-width:1.5;" x1="369.5" x2="369.5" y1="409.0156" y2="444.0156"/><polygon fill="#A80036" points="365.5,434.0156,369.5,444.0156,373.5,434.0156,369.5,438.0156" style="stroke:#A80036;stroke-width:1.0;"/><line style="stroke:#A80036;stroke-width:1.5;" x1="175.75" x2="121" y1="351.9219" y2="351.9219"/><line style="stroke:#A80036;stroke-width:1.5;" x1="121" x2="121" y1="351.9219" y2="373.9219"/><polygon fill="#A80036" points="117,363.9219,121,373.9219,125,363.9219,121,367.9219" style="stroke:#A80036;stroke-width:1.0;"/><line style="stroke:#A80036;stroke-width:1.5;" x1="314.75" x2="369.5" y1="351.9219" y2="351.9219"/><line style="stroke:#A80036;stroke-width:1.5;" x1="369.5" x2="369.5" y1="351.9219" y2="373.9219"/><polygon fill="#A80036" points="365.5,363.9219,369.5,373.9219,373.5,363.9219,369.5,367.9219" style="stroke:#A80036;stroke-width:1.0;"/><line style="stroke:#A80036;stroke-width:1.5;" x1="638" x2="638" y1="479.1094" y2="499.1094"/><polygon fill="#A80036" points="634,489.1094,638,499.1094,642,489.1094,638,493.1094" style="stroke:#A80036;stroke-width:1.0;"/><line style="stroke:#A80036;stroke-width:1.5;" x1="638" x2="638" y1="534.2031" y2="554.2031"/><polygon fill="#A80036" points="634,544.2031,638,554.2031,642,544.2031,638,548.2031" style="stroke:#A80036;stroke-width:1.0;"/><line style="stroke:#A80036;stroke-width:1.5;" x1="638" x2="638" y1="589.2969" y2="609.2969"/><polygon fill="#A80036" points="634,599.2969,638,609.2969,642,599.2969,638,603.2969" style="stroke:#A80036;stroke-width:1.0;"/><line style="stroke:#A80036;stroke-width:1.5;" x1="638" x2="638" y1="644.3906" y2="664.3906"/><polygon fill="#A80036" points="634,654.3906,638,664.3906,642,654.3906,638,658.3906" style="stroke:#A80036;stroke-width:1.0;"/><line style="stroke:#A80036;stroke-width:1.5;" x1="866.5" x2="866.5" y1="479.1094" y2="499.1094"/><polygon fill="#A80036" points="862.5,489.1094,866.5,499.1094,870.5,489.1094,866.5,493.1094" style="stroke:#A80036;stroke-width:1.0;"/><line style="stroke:#A80036;stroke-width:1.5;" x1="690.25" x2="638" y1="422.0156" y2="422.0156"/><line style="stroke:#A80036;stroke-width:1.5;" x1="638" x2="638" y1="422.0156" y2="444.0156"/><polygon fill="#A80036" points="634,434.0156,638,444.0156,642,434.0156,638,438.0156" style="stroke:#A80036;stroke-width:1.0;"/><line style="stroke:#A80036;stroke-width:1.5;" x1="814.25" x2="866.5" y1="422.0156" y2="422.0156"/><line style="stroke:#A80036;stroke-width:1.5;" x1="866.5" x2="866.5" y1="422.0156" y2="444.0156"/><polygon fill="#A80036" points="862.5,434.0156,866.5,444.0156,870.5,434.0156,866.5,438.0156" style="stroke:#A80036;stroke-width:1.0;"/><line style="stroke:#A80036;stroke-width:1.5;" x1="752.25" x2="752.25" y1="375.0156" y2="410.0156"/><polygon fill="#A80036" points="748.25,400.0156,752.25,410.0156,756.25,400.0156,752.25,404.0156" style="stroke:#A80036;stroke-width:1.0;"/><line style="stroke:#A80036;stroke-width:1.5;" x1="434.25" x2="245.25" y1="317.9219" y2="317.9219"/><line style="stroke:#A80036;stroke-width:1.5;" x1="245.25" x2="245.25" y1="317.9219" y2="339.9219"/><polygon fill="#A80036" points="241.25,329.9219,245.25,339.9219,249.25,329.9219,245.25,333.9219" style="stroke:#A80036;stroke-width:1.0;"/><line style="stroke:#A80036;stroke-width:1.5;" x1="563.25" x2="752.25" y1="317.9219" y2="317.9219"/><line style="stroke:#A80036;stroke-width:1.5;" x1="752.25" x2="752.25" y1="317.9219" y2="339.9219"/><polygon fill="#A80036" points="748.25,329.9219,752.25,339.9219,756.25,329.9219,752.25,333.9219" style="stroke:#A80036;stroke-width:1.0;"/><line style="stroke:#A80036;stroke-width:1.5;" x1="1104.4375" x2="1104.4375" y1="341.0156" y2="376.0156"/><polygon fill="#A80036" points="1100.4375,366.0156,1104.4375,376.0156,1108.4375,366.0156,1104.4375,370.0156" style="stroke:#A80036;stroke-width:1.0;"/><line style="stroke:#A80036;stroke-width:1.5;" x1="731.625" x2="498.75" y1="283.9219" y2="283.9219"/><line style="stroke:#A80036;stroke-width:1.5;" x1="498.75" x2="498.75" y1="283.9219" y2="305.9219"/><polygon fill="#A80036" points="494.75,295.9219,498.75,305.9219,502.75,295.9219,498.75,299.9219" style="stroke:#A80036;stroke-width:1.0;"/><line style="stroke:#A80036;stroke-width:1.5;" x1="877.625" x2="1104.4375" y1="283.9219" y2="283.9219"/><line style="stroke:#A80036;stroke-width:1.5;" x1="1104.4375" x2="1104.4375" y1="283.9219" y2="305.9219"/><polygon fill="#A80036" points="1100.4375,295.9219,1104.4375,305.9219,1108.4375,295.9219,1104.4375,299.9219" style="stroke:#A80036;stroke-width:1.0;"/><line style="stroke:#A80036;stroke-width:1.5;" x1="804.625" x2="804.625" y1="251.9219" y2="271.9219"/><polygon fill="#A80036" points="800.625,261.9219,804.625,271.9219,808.625,261.9219,804.625,265.9219" style="stroke:#A80036;stroke-width:1.0;"/><line style="stroke:#A80036;stroke-width:1.5;" x1="1342.4375" x2="1342.4375" y1="251.9219" y2="271.9219"/><polygon fill="#A80036" points="1338.4375,261.9219,1342.4375,271.9219,1346.4375,261.9219,1342.4375,265.9219" style="stroke:#A80036;stroke-width:1.0;"/><line style="stroke:#A80036;stroke-width:1.5;" x1="1018" x2="804.625" y1="194.8281" y2="194.8281"/><line style="stroke:#A80036;stroke-width:1.5;" x1="804.625" x2="804.625" y1="194.8281" y2="216.8281"/><polygon fill="#A80036" points="800.625,206.8281,804.625,216.8281,808.625,206.8281,804.625,210.8281" style="stroke:#A80036;stroke-width:1.0;"/><line style="stroke:#A80036;stroke-width:1.5;" x1="1143" x2="1342.4375" y1="194.8281" y2="194.8281"/><line style="stroke:#A80036;stroke-width:1.5;" x1="1342.4375" x2="1342.4375" y1="194.8281" y2="216.8281"/><polygon fill="#A80036" points="1338.4375,206.8281,1342.4375,216.8281,1346.4375,206.8281,1342.4375,210.8281" style="stroke:#A80036;stroke-width:1.0;"/><line style="stroke:#A80036;stroke-width:1.5;" x1="1080.5" x2="1080.5" y1="162.8281" y2="182.8281"/><polygon fill="#A80036" points="1076.5,172.8281,1080.5,182.8281,1084.5,172.8281,1080.5,176.8281" style="stroke:#A80036;stroke-width:1.0;"/><!--MD5=[39f1fac249030b0ffd5d5b502bf1bb21]
@startuml PAP_Schrankenoeffnung
title PAP: Schrankenöffnung mit Zahlungsprüfung

start

:Kennzeichen erfassen;

:Kennzeichen in Datenbank suchen;

if (Fahrzeug gefunden?) then (ja)
  :Aktives Ticket für Fahrzeug suchen;

  if (Aktives Ticket gefunden?) then (ja)
    if (Ticket ist Dauerticket?) then (ja)
      if (Dauerticket noch gültig?) then (ja)
        :Schranke öffnen;
        :Ausfahrtsprotokoll erstellen;
        :Ticket als abgeschlossen markieren;
        :Parkplatz als frei markieren;
        stop
      else (nein)
        :Fehlermeldung: Dauerticket abgelaufen;
        stop
      endif
    else (nein - Stundenticket)
      :Zahlungsstatus prüfen;

      if (Zahlung erfolgreich?) then (ja)
        :Schranke öffnen;
        :Ausfahrtsprotokoll erstellen;
        :Ticket als abgeschlossen markieren;
        :Parkplatz als frei markieren;
        stop
      else (nein)
        :Fehlermeldung: Bitte erst zahlen;
        stop
      endif
    endif
  else (nein)
    :Fehlermeldung: Kein aktives Ticket;
    stop
  endif
else (nein)
  :Fehlermeldung: Fahrzeug nicht gefunden;
  stop
endif

stop

@enduml

PlantUML version 1.2021.00(Sun Jan 10 11:25:05 CET 2021)
(MIT source distribution)
Java Runtime: Java(TM) SE Runtime Environment
JVM: Java HotSpot(TM) 64-Bit Server VM
Default Encoding: Cp1252
Language: de
Country: DE
--></g></svg>